<svg width="60" height="61" viewBox="0 0 60 61" fill="none" xmlns="http://www.w3.org/2000/svg">
<g filter="url(#filter0_d_39_3297)">
<path d="M47.6961 28.193C47.6961 38.025 39.6566 46.1724 29.9412 46.1724C20.2396 46.1724 12.2002 38.025 12.2002 28.193C12.2002 18.3472 20.2259 10.2 29.9277 10.2C39.6431 10.2 47.6961 18.3472 47.6961 28.193ZM28.6468 21.0124V26.8674H22.883C22.0927 26.8674 21.5477 27.406 21.5477 28.2069C21.5477 28.9664 22.1063 29.4911 22.883 29.4911H28.6468V35.3599C28.6468 36.1194 29.1783 36.6856 29.9277 36.6856C30.7043 36.6856 31.2358 36.1331 31.2358 35.3599V29.4911H37.0269C37.7763 29.4911 38.335 28.9664 38.335 28.2069C38.335 27.406 37.7898 26.8674 37.0269 26.8674H31.2358V21.0124C31.2358 20.2253 30.7043 19.6729 29.9277 19.6729C29.1783 19.6729 28.6468 20.2391 28.6468 21.0124Z" fill="#FA243C"/>
</g>
<defs>
<filter id="filter0_d_39_3297" x="0.000195503" y="-4.86374e-05" width="59.8961" height="60.3724" filterUnits="userSpaceOnUse" color-interpolation-filters="sRGB">
<feFlood flood-opacity="0" result="BackgroundImageFix"/>
<feColorMatrix in="SourceAlpha" type="matrix" values="0 0 0 0 0 0 0 0 0 0 0 0 0 0 0 0 0 0 127 0" result="hardAlpha"/>
<feOffset dy="2"/>
<feGaussianBlur stdDeviation="6.1"/>
<feColorMatrix type="matrix" values="0 0 0 0 0 0 0 0 0 0 0 0 0 0 0 0 0 0 0.1 0"/>
<feBlend mode="normal" in2="BackgroundImageFix" result="effect1_dropShadow_39_3297"/>
<feBlend mode="normal" in="SourceGraphic" in2="effect1_dropShadow_39_3297" result="shape"/>
</filter>
</defs>
</svg>
