<svg width="7" height="7" viewBox="0 0 7 7" fill="none" xmlns="http://www.w3.org/2000/svg">
<path d="M2.61717 7.00005C2.81881 7.00005 2.97265 6.91714 3.08295 6.75387L6.77472 0.953477C6.85534 0.829197 6.88818 0.719549 6.88818 0.615752C6.88818 0.339057 6.6923 0.145264 6.41567 0.145264C6.22626 0.145264 6.10937 0.213671 5.99538 0.398832L2.60206 5.83004L0.875236 3.63811C0.764799 3.49446 0.64777 3.43174 0.477718 3.43174C0.200124 3.43174 0 3.6307 0 3.90627C0 4.02792 0.0398351 4.1409 0.141889 4.26364L2.15275 6.76526C2.28421 6.92719 2.42624 7.00005 2.61717 7.00005Z" fill="#FA243C"/>
</svg>
