<svg width="18" height="14" viewBox="0 0 18 14" fill="none" xmlns="http://www.w3.org/2000/svg">
<g clip-path="url(#clip0_345_585)">
<path d="M17.7846 2.43523V11.571C17.7846 13.1534 16.9365 14.0002 15.3284 14.0002H2.45218C0.849847 14.0002 0 13.1613 0 11.571V2.43523C0 0.844905 0.849847 0.00390625 2.45218 0.00390625H15.3284C16.9365 0.00390625 17.7846 0.84887 17.7846 2.43523ZM7.0835 6.31643C6.776 6.31643 6.53594 6.55639 6.53594 6.86346C6.53594 7.16875 6.77415 7.41425 7.0835 7.41425H9.98839C10.3017 7.41425 10.5402 7.16875 10.5402 6.86346C10.5402 6.55639 10.3017 6.31643 9.98839 6.31643H7.0835ZM3.29889 3.83093L5.0504 4.89037L3.30074 5.95007C2.6354 6.34542 3.19673 7.35155 3.91791 6.90014L6.11878 5.51726C6.58298 5.23077 6.56342 4.54045 6.11878 4.25581L3.91791 2.88242C3.20043 2.42917 2.62746 3.42922 3.29889 3.83093Z" fill="#FA243C"/>
</g>
<defs>
<clipPath id="clip0_345_585">
<rect width="18" height="14" fill="white"/>
</clipPath>
</defs>
</svg>
