<svg width="51" height="49" viewBox="0 0 51 49" fill="none" xmlns="http://www.w3.org/2000/svg">
<g filter="url(#filter0_d_345_496)">
<path d="M12.2002 18.2162C12.2002 23.6761 16.8454 29.061 23.9398 33.666C24.3567 33.9394 24.848 34.2002 25.1789 34.2002C25.5198 34.2002 26.011 33.9394 26.428 33.666C33.5155 29.061 38.1608 23.6761 38.1608 18.2162C38.1608 13.4788 34.8809 10.2002 30.7012 10.2002C28.2557 10.2002 26.3045 11.3503 25.1789 13.0678C24.0664 11.3571 22.1121 10.2002 19.6598 10.2002C15.4801 10.2002 12.2002 13.4788 12.2002 18.2162ZM14.8155 18.2004C14.8155 14.961 16.97 12.7521 19.868 12.7521C22.142 12.7521 23.4534 14.1165 24.282 15.3943C24.6094 15.8779 24.8529 16.0554 25.1789 16.0554C25.5148 16.0554 25.7285 15.8711 26.0826 15.3943C26.9575 14.1301 28.2258 12.7521 30.493 12.7521C33.391 12.7521 35.5455 14.961 35.5455 18.2004C35.5455 22.676 30.9358 27.6284 25.399 31.3151C25.3021 31.3784 25.2287 31.4287 25.1789 31.4287C25.1323 31.4287 25.0589 31.3784 24.962 31.3151C19.4252 27.6284 14.8155 22.676 14.8155 18.2004Z" fill="#FA243C"/>
</g>
<defs>
<filter id="filter0_d_345_496" x="0.000195503" y="0.000195503" width="50.3609" height="48.4" filterUnits="userSpaceOnUse" color-interpolation-filters="sRGB">
<feFlood flood-opacity="0" result="BackgroundImageFix"/>
<feColorMatrix in="SourceAlpha" type="matrix" values="0 0 0 0 0 0 0 0 0 0 0 0 0 0 0 0 0 0 127 0" result="hardAlpha"/>
<feOffset dy="2"/>
<feGaussianBlur stdDeviation="6.1"/>
<feColorMatrix type="matrix" values="0 0 0 0 0 0 0 0 0 0 0 0 0 0 0 0 0 0 0.1 0"/>
<feBlend mode="normal" in2="BackgroundImageFix" result="effect1_dropShadow_345_496"/>
<feBlend mode="normal" in="SourceGraphic" in2="effect1_dropShadow_345_496" result="shape"/>
</filter>
</defs>
</svg>
