<svg width="61" height="48" viewBox="0 0 61 48" fill="none" xmlns="http://www.w3.org/2000/svg">
<path d="M15.9294 34.533H18.9341C19.862 34.533 20.4585 34.0074 20.6794 33.1752L21.5632 29.5622C22.1818 29.3431 22.7784 29.124 23.3085 28.8175L26.5122 30.7883C27.2412 31.2262 28.1029 31.1605 28.7214 30.5474L30.8424 28.4233C31.439 27.8102 31.5494 26.9344 31.0854 26.1899L29.1192 23.0802C29.3843 22.5329 29.6495 21.9635 29.8262 21.3723L33.4715 20.4964C34.3552 20.2993 34.8635 19.6861 34.8635 18.7883V15.8321C34.8635 14.9562 34.3552 14.3212 33.4715 14.1241L29.8703 13.2263C29.6495 12.5693 29.3843 12 29.1633 11.5182L31.0854 8.34307C31.5272 7.57664 31.5272 6.76642 30.8865 6.1533L28.7214 4.05111C28.1029 3.48175 27.2853 3.32847 26.5564 3.76642L23.3085 5.75912C22.8004 5.47445 22.2039 5.23358 21.5632 5.0365L20.6794 1.35766C20.4585 0.525549 19.862 0 18.9341 0H15.9294C15.0014 0 14.3828 0.525549 14.184 1.35766L13.3003 4.99271C12.6816 5.21167 12.063 5.43066 11.5328 5.73723L8.30714 3.76642C7.57805 3.32847 6.76059 3.45985 6.14197 4.05111L3.97681 6.1533C3.33611 6.76642 3.33611 7.57664 3.77797 8.34307L5.7001 11.5182C5.47918 12 5.21406 12.5693 4.99311 13.2263L1.36979 14.1241C0.508148 14.3212 0 14.9562 0 15.8321V18.7883C0 19.6861 0.508148 20.2993 1.36979 20.4964L5.0373 21.3723C5.21406 21.9635 5.47918 22.5329 5.74429 23.0802L3.77797 26.1899C3.31401 26.9344 3.42448 27.8102 4.021 28.4233L6.14197 30.5474C6.76059 31.1605 7.62223 31.2262 8.35133 30.7883L11.5549 28.8175C12.0851 29.124 12.6816 29.3431 13.3003 29.5622L14.184 33.1752C14.3828 34.0074 15.0014 34.533 15.9294 34.533ZM17.4317 22.7517C14.3607 22.7517 11.8642 20.2993 11.8642 17.2336C11.8642 14.1898 14.3607 11.7372 17.4317 11.7372C20.5027 11.7372 22.9992 14.1898 22.9992 17.2336C22.9992 20.2993 20.5027 22.7517 17.4317 22.7517ZM44.7833 48H47.302C48.1194 48 48.6719 47.5401 48.8264 46.8394L49.5556 43.7082C50.13 43.4891 50.6381 43.314 51.1021 43.0512L53.8638 44.7591C54.4823 45.1534 55.2115 45.1096 55.7637 44.562L57.5313 42.7884C58.0836 42.241 58.172 41.4746 57.7521 40.8613L56.0511 38.146C56.294 37.6861 56.4929 37.1825 56.6696 36.6789L59.8512 35.9344C60.5801 35.7811 61 35.2337 61 34.4453V31.9709C61 31.1825 60.5801 30.6351 59.8512 30.46L56.6918 29.7153C56.4929 29.146 56.294 28.6424 56.0732 28.2264L57.7521 25.4672C58.172 24.8102 58.1499 24.1314 57.5755 23.5839L55.7637 21.8321C55.2115 21.3285 54.5045 21.1971 53.886 21.5694L51.1021 23.2993C50.6603 23.0802 50.13 22.8394 49.5556 22.6863L48.8264 19.4891C48.6719 18.7883 48.1194 18.3066 47.302 18.3066H44.7833C43.9881 18.3066 43.4357 18.7883 43.259 19.4891L42.5079 22.6423C41.9776 22.8394 41.4251 23.0145 40.9613 23.2773L38.1775 21.5694C37.5809 21.219 36.8739 21.3066 36.3216 21.8321L34.5321 23.5839C33.9577 24.1314 33.9355 24.8102 34.3332 25.4672L35.9902 28.2264C35.7913 28.6424 35.5925 29.146 35.3936 29.7153L32.2564 30.46C31.5053 30.6351 31.0634 31.1825 31.0634 31.9709V34.4453C31.0634 35.2337 31.5053 35.7811 32.2564 35.9344L35.438 36.6789C35.5925 37.1825 35.7913 37.6861 36.0343 38.146L34.3332 40.8613C33.9133 41.4746 34.024 42.241 34.5541 42.7884L36.3216 44.562C36.8739 45.1096 37.603 45.1534 38.2216 44.7591L40.9832 43.0512C41.4473 43.314 41.9776 43.4891 42.5079 43.7082L43.259 46.8394C43.4357 47.5401 43.9881 48 44.7833 48ZM46.0428 37.511C43.6123 37.511 41.624 35.562 41.624 33.1315C41.624 30.7226 43.6123 28.7518 46.0428 28.7518C48.495 28.7518 50.4614 30.7226 50.4614 33.1315C50.4614 35.562 48.495 37.511 46.0428 37.511Z" fill="#FA243C"/>
</svg>
