<svg width="49" height="49" viewBox="0 0 49 49" fill="none" xmlns="http://www.w3.org/2000/svg">
<path d="M48 24C48 37.2234 37.2471 48 24 48C10.7765 48 0 37.2234 0 24C0 10.7529 10.7765 0 24 0C37.2471 0 48 10.7529 48 24ZM26.5411 25.247C26.5411 25.6942 26.6823 26.0705 26.9883 26.3765L29.5765 28.8471L30.5882 29.7882L29.4353 29.7176H13.6941C12.8235 29.7176 12.1647 30.3764 12.1647 31.2941C12.1647 32.2116 12.8235 32.894 13.6941 32.894H29.4117L30.5882 32.8706L29.5765 33.7411L27.0353 36.2353C26.7295 36.5647 26.5411 36.9177 26.5411 37.3646C26.5411 38.2588 27.2001 38.9175 28.0942 38.9175C28.4705 38.9175 28.8941 38.7293 29.2471 38.4236L35.3176 32.447C35.9999 31.7883 35.953 30.8 35.3176 30.1646L29.2471 24.1883C28.9411 23.9059 28.4942 23.7176 28.0942 23.7176C27.1764 23.7176 26.5411 24.3529 26.5411 25.247ZM18.7294 9.67057L12.6353 15.5764C12 16.2118 12 17.3176 12.6353 17.9294L18.7294 23.9059C19.0588 24.1647 19.4823 24.3529 19.8588 24.3529C20.7765 24.3529 21.4353 23.7176 21.4353 22.8235C21.4353 22.3764 21.2705 22 20.9412 21.6941L18.4 19.2235L17.4117 18.2823L18.5411 18.3529H34.2589C35.1528 18.3529 35.8351 17.647 35.8351 16.7529C35.8351 15.8353 35.1764 15.1765 34.2589 15.1765H18.5647L17.4353 15.2L18.4 14.3294L20.9412 11.8353C21.2705 11.5294 21.4353 11.1294 21.4353 10.7059C21.4353 9.78822 20.7765 9.15293 19.8588 9.15293C19.4823 9.15293 19.0353 9.34116 18.7294 9.67057Z" fill="#FA243C"/>
</svg>
