<svg width="49" height="51" viewBox="0 0 49 51" fill="none" xmlns="http://www.w3.org/2000/svg">
<path d="M21.0591 1.3258C23.6458 2.2163 31.9983 5.19186 34.5853 6.2561C36.4487 7.03802 37.4351 7.75475 37.4351 10.0353V24.0726C36.8764 23.9929 36.3046 23.9574 35.7252 23.9574C35.1229 23.9574 34.5289 23.9956 33.9495 24.0819V10.7086C33.9495 9.97014 33.818 9.66607 33.226 9.44886C29.8279 8.29773 23.4047 5.99548 20.0945 4.69231C19.9191 4.62715 19.7876 4.58371 19.678 4.56198V40.8552C19.9411 40.79 20.248 40.6379 20.5769 40.4208C20.972 40.1826 21.3565 39.9513 21.7123 39.7369C21.8616 40.9951 22.1936 42.1987 22.6747 43.3272C22.043 43.6838 21.3772 44.0552 20.6864 44.4388C20.1382 44.7429 19.5683 44.8732 19.2176 44.8732C18.8667 44.8732 18.3188 44.7429 17.7488 44.4388C5.2968 37.4886 1 34.5782 1 26.6507V10.0353C1 7.75475 2.00844 7.01629 3.84992 6.2561C6.43676 5.21357 14.8112 2.06426 17.3979 1.3258C17.9679 1.17377 18.6036 1 19.2176 1C19.8314 1 20.4671 1.13033 21.0591 1.3258Z" fill="#FA243C"/>
<path d="M46.8615 37.9667C46.8615 43.9828 41.7535 49.0001 35.7249 49.0001C29.6086 49.0001 24.5664 44.0264 24.5664 37.9667C24.5664 31.907 29.6086 26.9331 35.7249 26.9331C41.8193 26.9331 46.8615 31.907 46.8615 37.9667ZM39.671 33.058L34.3219 40.421L31.6474 37.5324C31.4063 37.2717 31.0554 37.0544 30.595 37.0544C29.8277 37.0544 29.2139 37.6625 29.2139 38.4227C29.2139 38.7485 29.3235 39.1395 29.5866 39.4219L33.2915 43.4399C33.5766 43.7658 34.015 43.9177 34.3877 43.9177C34.8699 43.9177 35.3085 43.7006 35.5496 43.3966L41.9071 34.6219C42.1044 34.3613 42.2139 34.0572 42.2139 33.8182C42.2139 33.0364 41.5782 32.4717 40.8329 32.4717C40.3287 32.4717 39.9341 32.7106 39.671 33.058Z" fill="#FA243C"/>
</svg>
