<svg width="45" height="44" viewBox="0 0 45 44" fill="none" xmlns="http://www.w3.org/2000/svg">
<path d="M22 42.7921C27.9961 42.7921 32.8922 33.9273 32.8922 22.0431C32.8922 10.0941 28.0175 1.22941 22 1.22941C15.9823 1.22941 11.1078 10.0941 11.1078 22.0431C11.1078 33.9273 16.0039 42.7921 22 42.7921ZM22 3.83921C26.2274 3.83921 30.002 12.251 30.002 22.0431C30.002 31.6626 26.2274 40.1607 22 40.1607C17.7725 40.1607 13.998 31.6626 13.998 22.0431C13.998 12.251 17.7725 3.83921 22 3.83921ZM20.598 1.53137V42.3824H23.4236V1.53137H20.598ZM22 30.1097C15.3568 30.1097 9.46862 31.8568 6.44901 34.6392L8.62744 36.4293C11.4745 34.1648 16.1117 32.9352 22 32.9352C27.8883 32.9352 32.5255 34.1648 35.3724 36.4293L37.551 34.6392C34.5314 31.8568 28.6432 30.1097 22 30.1097ZM41.9078 20.5765H2.09215V23.4019H41.9078V20.5765ZM22 13.998C28.6432 13.998 34.5314 12.251 37.551 9.46862L35.3724 7.67842C32.5255 9.92156 27.8883 11.1725 22 11.1725C16.1117 11.1725 11.4745 9.92156 8.62744 7.67842L6.44901 9.46862C9.46862 12.251 15.3568 13.998 22 13.998ZM22 44C34.1431 44 44 34.1431 44 22C44 9.85685 34.1431 0 22 0C9.85685 0 0 9.85685 0 22C0 34.1431 9.85685 44 22 44ZM22 41.0667C11.4745 41.0667 2.93332 32.5255 2.93332 22C2.93332 11.4745 11.4745 2.93332 22 2.93332C32.5255 2.93332 41.0667 11.4745 41.0667 22C41.0667 32.5255 32.5255 41.0667 22 41.0667Z" fill="#FA243C"/>
</svg>
