<svg width="49" height="48" viewBox="0 0 49 48" fill="none" xmlns="http://www.w3.org/2000/svg">
<path d="M24.0753 46.6823C30.637 46.6823 35.9949 37.0117 35.9949 24.047C35.9949 11.0117 30.6605 1.34118 24.0753 1.34118C17.49 1.34118 12.1557 11.0117 12.1557 24.047C12.1557 37.0117 17.5136 46.6823 24.0753 46.6823ZM24.0753 4.18823C28.7015 4.18823 32.8321 13.3647 32.8321 24.047C32.8321 34.541 28.7015 43.8117 24.0753 43.8117C19.4491 43.8117 15.3185 34.541 15.3185 24.047C15.3185 13.3647 19.4491 4.18823 24.0753 4.18823ZM22.5411 1.67059V46.2354H25.6332V1.67059H22.5411ZM24.0753 32.847C16.8055 32.847 10.3618 34.7528 7.05736 37.7882L9.44128 39.741C12.5569 37.2707 17.6316 35.9293 24.0753 35.9293C30.5191 35.9293 35.5937 37.2707 38.7092 39.741L41.0933 37.7882C37.7888 34.7528 31.3452 32.847 24.0753 32.847ZM45.861 22.447H2.28951V25.5294H45.861V22.447ZM24.0753 15.2706C31.3452 15.2706 37.7888 13.3647 41.0933 10.3294L38.7092 8.37645C35.5937 10.8235 30.5191 12.1882 24.0753 12.1882C17.6316 12.1882 12.5569 10.8235 9.44128 8.37645L7.05736 10.3294C10.3618 13.3647 16.8055 15.2706 24.0753 15.2706ZM24.0753 48C37.3639 48 48.1506 37.2471 48.1506 24C48.1506 10.7529 37.3639 0 24.0753 0C10.7867 0 0 10.7529 0 24C0 37.2471 10.7867 48 24.0753 48ZM24.0753 44.8001C12.5569 44.8001 3.21002 35.4824 3.21002 24C3.21002 12.5176 12.5569 3.19998 24.0753 3.19998C35.5937 3.19998 44.9406 12.5176 44.9406 24C44.9406 35.4824 35.5937 44.8001 24.0753 44.8001Z" fill="#FA243C"/>
</svg>
