<svg width="43" height="44" viewBox="0 0 43 44" fill="none" xmlns="http://www.w3.org/2000/svg">
<path d="M18.37 0.298654C20.739 1.11494 28.3881 3.84254 30.7573 4.81809C32.4638 5.53485 33.3671 6.19185 33.3671 8.28235V21.1499C32.8554 21.0769 32.3318 21.0443 31.8012 21.0443C31.2496 21.0443 30.7057 21.0793 30.175 21.1584V8.89955C30.175 8.22263 30.0546 7.9439 29.5125 7.74479C26.4005 6.68959 20.5182 4.5792 17.4866 3.38462C17.3261 3.32489 17.2056 3.28507 17.1053 3.26515V36.5339C17.3462 36.4742 17.6273 36.3347 17.9284 36.1358C18.2903 35.9174 18.6424 35.7054 18.9683 35.5089C19.105 36.6622 19.409 37.7655 19.8496 38.8C19.2711 39.1268 18.6613 39.4673 18.0288 39.8189C17.5267 40.0976 17.0047 40.2171 16.6836 40.2171C16.3623 40.2171 15.8605 40.0976 15.3385 39.8189C3.93499 33.4479 0 30.78 0 23.5132V8.28235C0 6.19185 0.923522 5.51493 2.60995 4.81809C4.97897 3.86244 12.6482 0.975574 15.0172 0.298654C15.5391 0.159286 16.1214 0 16.6836 0C17.2457 0 17.8279 0.11947 18.37 0.298654Z" fill="#FA243C"/>
<path d="M41.9998 33.8861C41.9998 39.4009 37.3219 44.0001 31.801 44.0001C26.1996 44.0001 21.582 39.4408 21.582 33.8861C21.582 28.3314 26.1996 23.772 31.801 23.772C37.3822 23.772 41.9998 28.3314 41.9998 33.8861ZM35.4147 29.3864L30.5161 36.1359L28.0668 33.488C27.846 33.249 27.5246 33.0498 27.103 33.0498C26.4003 33.0498 25.8382 33.6072 25.8382 34.3041C25.8382 34.6027 25.9386 34.9611 26.1795 35.2201L29.5725 38.9032C29.8335 39.2019 30.235 39.3412 30.5763 39.3412C31.0179 39.3412 31.4196 39.1422 31.6404 38.8635L37.4625 30.8201C37.6433 30.5811 37.7436 30.3024 37.7436 30.0833C37.7436 29.3667 37.1614 28.849 36.4788 28.849C36.0171 28.849 35.6557 29.068 35.4147 29.3864Z" fill="#FA243C"/>
</svg>
