<svg width="49" height="53" viewBox="0 0 49 53" fill="none" xmlns="http://www.w3.org/2000/svg">
<path d="M46.4279 36.239C46.4279 37.4128 45.7539 38.2171 43.9922 39.2389L26.9866 49.1084C25.921 49.7173 25.1165 49.9998 24.203 49.9998C23.3114 49.9998 22.485 49.7173 21.4413 49.1084L4.43562 39.2389C2.67415 38.2171 2 37.4128 2 36.239C2 35.4505 2.29318 34.8321 3.00081 34.2095L23.1157 45.8911C23.4855 46.0868 23.8768 46.2172 24.203 46.2172C24.5511 46.2172 24.9426 46.0868 25.3122 45.8911L45.4272 34.2095C46.1347 34.8321 46.4279 35.4505 46.4279 36.239Z" fill="#FA243C"/>
<path d="M46.4279 26.2176C46.4279 27.4133 45.7539 28.196 43.9922 29.2177L26.9866 39.1089C25.921 39.7177 25.1165 40.0002 24.203 40.0002C23.3114 40.0002 22.485 39.7177 21.4413 39.1089L4.43562 29.2177C2.67415 28.196 2 27.4133 2 26.2176C2 25.4267 2.29501 24.8165 3.00733 24.1919L23.1157 35.8699C23.4855 36.0654 23.8768 36.1958 24.203 36.1958C24.5511 36.1958 24.9426 36.0654 25.3122 35.8699L45.4205 24.1919C46.1329 24.8165 46.4279 25.4267 46.4279 26.2176Z" fill="#FA243C"/>
<path d="M4.43562 18.7826L21.4413 28.6522C22.485 29.2608 23.3114 29.5436 24.203 29.5436C25.1165 29.5436 25.921 29.2608 26.9866 28.6522L43.9922 18.7826C45.7539 17.7609 46.4279 16.9565 46.4279 15.7609C46.4279 14.587 45.7539 13.7826 43.9922 12.7609L26.9866 2.8913C25.921 2.28262 25.1165 2 24.203 2C23.3114 2 22.485 2.28262 21.4413 2.8913L4.43562 12.7609C2.67415 13.7826 2 14.587 2 15.7609C2 16.9565 2.67415 17.7609 4.43562 18.7826Z" fill="#FA243C"/>
</svg>
