<svg width="45" height="44" viewBox="0 0 45 44" fill="none" xmlns="http://www.w3.org/2000/svg">
<path d="M26.295 44C27.8072 44 28.8782 42.6978 29.6554 40.6816L43.4118 4.74653C43.7899 3.78042 44 2.91933 44 2.20525C44 0.840084 43.16 0 41.7947 0C41.0807 0 40.2196 0.210032 39.2535 0.588072L3.12936 14.4286C1.36516 15.1007 0 16.1718 0 17.705C0 19.6373 1.47017 20.2883 3.48639 20.8974L14.8277 24.3418C16.1718 24.7619 16.9279 24.7197 17.831 23.8797L40.8706 2.35227C41.1437 2.10023 41.4586 2.14223 41.6687 2.33125C41.8788 2.54129 41.8997 2.85631 41.6476 3.12936L20.2043 26.2529C19.3852 27.114 19.3222 27.8282 19.7212 29.2352L23.0607 40.3246C23.6906 42.4457 24.3418 44 26.295 44Z" fill="#FA243C"/>
</svg>
