<svg width="42" height="44" viewBox="0 0 42 44" fill="none" xmlns="http://www.w3.org/2000/svg">
<path d="M41 31.3858C41 32.4618 40.3779 33.199 38.7522 34.1357L23.0587 43.1828C22.0754 43.7409 21.3329 43.9998 20.4899 43.9998C19.6671 43.9998 18.9045 43.7409 17.9413 43.1828L2.24769 34.1357C0.622136 33.199 0 32.4618 0 31.3858C0 30.663 0.270563 30.0961 0.923586 29.5254L19.4864 40.2335C19.8278 40.4129 20.1888 40.5325 20.4899 40.5325C20.8111 40.5325 21.1724 40.4129 21.5135 40.2335L40.0765 29.5254C40.7294 30.0961 41 30.663 41 31.3858Z" fill="#FA243C"/>
<path d="M41 22.1992C41 23.2952 40.3779 24.0127 38.7522 24.9493L23.0587 34.0162C22.0754 34.5743 21.3329 34.8332 20.4899 34.8332C19.6671 34.8332 18.9045 34.5743 17.9413 34.0162L2.24769 24.9493C0.622136 24.0127 0 23.2952 0 22.1992C0 21.4742 0.272248 20.9149 0.929607 20.3423L19.4864 31.0472C19.8278 31.2263 20.1888 31.3459 20.4899 31.3459C20.8111 31.3459 21.1724 31.2263 21.5135 31.0472L40.0703 20.3423C40.7277 20.9149 41 21.4742 41 22.1992Z" fill="#FA243C"/>
<path d="M2.24769 15.3841L17.9413 24.4312C18.9045 24.9891 19.6671 25.2483 20.4899 25.2483C21.3329 25.2483 22.0754 24.9891 23.0587 24.4312L38.7522 15.3841C40.3779 14.4475 41 13.7101 41 12.6141C41 11.538 40.3779 10.8007 38.7522 9.86413L23.0587 0.817027C22.0754 0.259072 21.3329 0 20.4899 0C19.6671 0 18.9045 0.259072 17.9413 0.817027L2.24769 9.86413C0.622136 10.8007 0 11.538 0 12.6141C0 13.7101 0.622136 14.4475 2.24769 15.3841Z" fill="#FA243C"/>
</svg>
