<svg width="64" height="44" viewBox="0 0 64 44" fill="none" xmlns="http://www.w3.org/2000/svg">
<path d="M0 22.0015C0 30.2149 3.09558 37.7419 8.45144 43.3318C9.33588 44.2635 10.5397 44.1653 11.2276 43.3808C11.9401 42.6208 11.7927 41.493 10.9574 40.6349C6.2403 35.7314 3.6852 29.1607 3.6852 22.0015C3.6852 14.8424 6.2403 8.27165 10.9574 3.36814C11.7927 2.4855 11.9401 1.38221 11.2276 0.597649C10.5397 -0.162396 9.33588 -0.260466 8.45144 0.671203C3.09558 6.26121 0 13.7881 0 22.0015ZM64 22.0015C64 13.7881 60.9043 6.26121 55.5485 0.671203C54.664 -0.260466 53.4602 -0.162396 52.7724 0.597649C52.0599 1.38221 52.2073 2.4855 53.0425 3.36814C57.735 8.27165 60.3146 14.8424 60.3146 22.0015C60.3146 29.1607 57.735 35.7314 53.0425 40.6349C52.2073 41.493 52.0599 42.6208 52.7724 43.3808C53.4602 44.1653 54.664 44.2635 55.5485 43.3318C60.9043 37.7419 64 30.2149 64 22.0015Z" fill="#FA243C"/>
<path d="M8.79541 21.9995C8.79541 27.8102 10.8837 33.2286 14.6426 37.274C15.5025 38.2303 16.7555 38.2546 17.4925 37.3965C18.205 36.5876 18.0084 35.5331 17.1731 34.626C14.1267 31.2181 12.4561 26.805 12.4561 21.9995C12.4561 17.1941 14.1267 12.7809 17.1731 9.37295C18.0084 8.4658 18.205 7.41154 17.4925 6.57795C16.7555 5.74435 15.5025 5.74435 14.6426 6.70052C10.8837 10.7705 8.79541 16.1643 8.79541 21.9995ZM55.2046 21.9995C55.2046 16.1643 53.1163 10.7705 49.3572 6.70052C48.4973 5.74435 47.2445 5.74435 46.5074 6.57795C45.7705 7.41154 45.9914 8.4658 46.8022 9.37295C49.8732 12.7809 51.5439 17.1941 51.5439 21.9995C51.5439 26.805 49.8732 31.2181 46.8022 34.626C45.9914 35.5331 45.7705 36.5876 46.5074 37.3965C47.2445 38.2546 48.4973 38.2303 49.3572 37.274C53.1163 33.2286 55.2046 27.8102 55.2046 21.9995Z" fill="#FA243C"/>
<path d="M17.5664 21.9997C17.5664 25.285 18.6965 28.3743 20.662 30.8016C21.4727 31.8312 22.824 31.8312 23.561 30.9976C24.2981 30.1641 23.9787 29.1835 23.2662 28.1782C21.9395 26.5109 21.2516 24.3534 21.2516 21.9997C21.2516 19.646 21.9395 17.4885 23.2662 15.7967C23.9787 14.816 24.2981 13.8353 23.561 13.0017C22.824 12.1681 21.4727 12.1681 20.662 13.1734C18.6965 15.6006 17.5664 18.6898 17.5664 21.9997ZM46.4338 21.9997C46.4338 18.6898 45.3038 15.6006 43.3384 13.1734C42.5276 12.1681 41.1764 12.1681 40.4393 13.0017C39.7021 13.8353 39.997 14.816 40.7341 15.7967C42.0609 17.4885 42.7487 19.646 42.7487 21.9997C42.7487 24.3534 42.0609 26.5109 40.7341 28.1782C39.997 29.1835 39.7021 30.1641 40.4393 30.9976C41.1764 31.8312 42.5276 31.8312 43.3384 30.8016C45.3038 28.3743 46.4338 25.285 46.4338 21.9997Z" fill="#FA243C"/>
<path d="M27.5166 22.0479C27.5166 24.4261 29.6049 26.4365 32.0372 26.4365C34.4694 26.4365 36.4594 24.4261 36.4594 21.9988C36.4594 19.5471 34.4938 17.5366 32.0372 17.5366C29.5556 17.5366 27.5166 19.5961 27.5166 22.0479Z" fill="#FA243C"/>
</svg>
