<svg width="12" height="12" viewBox="0 0 12 12" fill="none" xmlns="http://www.w3.org/2000/svg">
<g clip-path="url(#clip0_345_700)">
<path d="M11.832 5.99769C11.832 9.27501 9.15213 11.9908 5.91368 11.9908C2.67979 11.9908 0 9.27501 0 5.99769C0 2.71576 2.67524 0 5.90917 0C9.14762 0 11.832 2.71576 11.832 5.99769ZM7.87129 3.63176L5.24602 7.86191L3.93792 6.20485C3.81529 6.04374 3.70174 5.99307 3.56094 5.99307C3.33384 5.99307 3.1567 6.1818 3.1567 6.41196C3.1567 6.52706 3.20212 6.64212 3.27933 6.74336L4.82818 8.63982C4.95989 8.81012 5.09161 8.88379 5.26421 8.88379C5.43681 8.88379 5.57759 8.80093 5.68206 8.63982L8.52987 4.11507C8.58894 4.01841 8.64801 3.89873 8.64801 3.78826C8.64801 3.55351 8.44816 3.39701 8.23012 3.39701C8.09384 3.39701 7.96212 3.47986 7.87129 3.63176Z" fill="#30D158"/>
</g>
<defs>
<clipPath id="clip0_345_700">
<rect width="12" height="12" fill="white"/>
</clipPath>
</defs>
</svg>
