<svg width="12" height="12" viewBox="0 0 12 12" fill="none" xmlns="http://www.w3.org/2000/svg">
<g clip-path="url(#clip0_345_127)">
<path d="M6.82498 0.475846L7.67444 1.3273C7.76021 1.40997 7.84189 1.44304 7.95217 1.44304H9.14473C10.031 1.44304 10.4271 1.8481 10.4271 2.73676V3.94368C10.4271 4.05941 10.4557 4.14208 10.5374 4.22474L11.3787 5.08445C12.0036 5.71272 12.0077 6.27899 11.3787 6.91136L10.5374 7.76696C10.4557 7.85377 10.4271 7.93643 10.4271 8.05219V9.25498C10.4271 10.1519 10.0269 10.5528 9.14473 10.5528H7.95217C7.84189 10.5528 7.76021 10.5817 7.67444 10.6685L6.82498 11.5159C6.20419 12.1483 5.64467 12.1524 5.02388 11.5159L4.17442 10.6685C4.09274 10.5817 4.01106 10.5528 3.8967 10.5528H2.70416C1.822 10.5528 1.42585 10.1477 1.42585 9.25498V8.05219C1.42585 7.93643 1.39317 7.85377 1.31149 7.76696L0.470178 6.91136C-0.154682 6.27899 -0.158767 5.71272 0.470178 5.08445L1.31149 4.22474C1.39317 4.14208 1.42585 4.05941 1.42585 3.94368V2.73676C1.42585 1.83983 1.822 1.44304 2.70416 1.44304H3.8967C4.01106 1.44304 4.09274 1.40997 4.17442 1.3273L5.01983 0.475846C5.64467 -0.156547 6.20419 -0.160681 6.82498 0.475846ZM7.68669 3.86928L5.32612 7.66779L4.14991 6.18392C4.04373 6.03511 3.94163 5.98965 3.81094 5.98965C3.60673 5.98965 3.45154 6.15912 3.45154 6.36579C3.45154 6.46911 3.49238 6.57247 3.55772 6.66338L4.9504 8.36628C5.06884 8.52335 5.19133 8.58535 5.34653 8.58535C5.49767 8.58535 5.62426 8.51095 5.71819 8.36628L8.27888 4.30741C8.33199 4.21648 8.38916 4.10901 8.38916 4.00981C8.38916 3.79901 8.2054 3.66262 8.00934 3.66262C7.88681 3.66262 7.77247 3.73288 7.68669 3.86928Z" fill="#34C759"/>
</g>
<defs>
<clipPath id="clip0_345_127">
<rect width="12" height="12" fill="white"/>
</clipPath>
</defs>
</svg>
