<svg width="12" height="12" viewBox="0 0 12 12" fill="none" xmlns="http://www.w3.org/2000/svg">
<g clip-path="url(#clip0_345_239)">
<path d="M11.832 5.99769C11.832 9.27501 9.15213 11.9908 5.91368 11.9908C2.67979 11.9908 0 9.27501 0 5.99769C0 2.71576 2.67524 0 5.90917 0C9.14762 0 11.832 2.71576 11.832 5.99769ZM7.60335 3.71001L5.91368 5.41313L4.23315 3.71461C4.1514 3.63176 4.06056 3.59033 3.94246 3.59033C3.71082 3.59033 3.5246 3.76985 3.5246 4.0046C3.5246 4.11967 3.57002 4.22094 3.65178 4.3038L5.32779 6.00231L3.65178 7.70081C3.57002 7.78367 3.5246 7.88953 3.5246 8.00002C3.5246 8.23937 3.71082 8.42809 3.94246 8.42809C4.06056 8.42809 4.16502 8.38204 4.24678 8.29918L5.91368 6.60068L7.58516 8.29918C7.66692 8.38204 7.77139 8.42809 7.88948 8.42809C8.1211 8.42809 8.30732 8.23937 8.30732 8.00002C8.30732 7.88491 8.271 7.77905 8.18472 7.69619L6.50868 6.00231L8.18923 4.29919C8.28007 4.20713 8.31188 4.11507 8.31188 3.99539C8.31188 3.76524 8.12566 3.58113 7.89855 3.58113C7.78501 3.58113 7.69418 3.61795 7.60335 3.71001Z" fill="#FF453A"/>
</g>
<defs>
<clipPath id="clip0_345_239">
<rect width="12" height="12" fill="white"/>
</clipPath>
</defs>
</svg>
