<svg width="12" height="12" viewBox="0 0 12 12" fill="none" xmlns="http://www.w3.org/2000/svg">
<g clip-path="url(#clip0_345_602)">
<path d="M11.832 6.00238C11.832 9.28432 9.15213 12.0001 5.91368 12.0001C2.67979 12.0001 0 9.28432 0 6.00238C0 2.72504 2.67524 0.00927734 5.90917 0.00927734C9.14762 0.00927734 11.832 2.72504 11.832 6.00238ZM1.94398 6.00695C1.94398 6.60537 3.60181 8.54322 5.91368 8.54322C8.24374 8.54322 9.88341 6.60537 9.88341 6.00695C9.88341 5.40396 8.23467 3.47072 5.91368 3.47072C3.5791 3.47072 1.94398 5.40396 1.94398 6.00695ZM7.5579 6.00695C7.5579 6.90916 6.81756 7.66864 5.91368 7.66864C5.00077 7.66864 4.26949 6.90916 4.26949 6.00695C4.26495 5.08175 5.00077 4.34529 5.91368 4.34529C6.81756 4.34529 7.5579 5.08175 7.5579 6.00695ZM5.21877 6.00695C5.21877 6.37984 5.54127 6.70662 5.92279 6.70662C6.29069 6.70662 6.60863 6.37984 6.60863 6.00695C6.60863 5.62955 6.29069 5.30272 5.92279 5.30272C5.54127 5.30272 5.21877 5.62955 5.21877 6.00695Z" fill="#34C759"/>
</g>
<defs>
<clipPath id="clip0_345_602">
<rect width="12" height="12" fill="white"/>
</clipPath>
</defs>
</svg>
