<svg width="12" height="12" viewBox="0 0 12 12" fill="none" xmlns="http://www.w3.org/2000/svg">
<g clip-path="url(#clip0_345_478)">
<path d="M11.832 6.00238C11.832 9.28432 9.15213 12.0001 5.91368 12.0001C2.67979 12.0001 0 9.28432 0 6.00238C0 2.72504 2.67524 0.00927734 5.90917 0.00927734C9.14762 0.00927734 11.832 2.72504 11.832 6.00238ZM5.59122 2.44426C5.41862 2.44426 5.28691 2.54552 5.25058 2.72965L5.07342 3.47533C4.95078 3.51676 4.83269 3.56739 4.72367 3.62263L4.07872 3.21296C3.91975 3.1209 3.76987 3.13931 3.64269 3.26359L3.18849 3.71468C3.06131 3.84817 3.05223 4.01388 3.14761 4.16578L3.54277 4.8194C3.50189 4.92069 3.44739 5.04036 3.40651 5.16923L2.67524 5.34877C2.49356 5.39015 2.39818 5.51906 2.39818 5.69855V6.33378C2.39818 6.51789 2.49356 6.64219 2.67524 6.68824L3.41105 6.85853C3.44739 6.97821 3.49281 7.09788 3.54731 7.20837L3.1567 7.85736C3.05223 8.00466 3.0704 8.1842 3.19758 8.31306L3.64269 8.75957C3.76987 8.88843 3.93792 8.90686 4.08327 8.801L4.72823 8.40054C4.83269 8.45117 4.95078 8.49717 5.07342 8.54322L5.25058 9.28432C5.28691 9.46842 5.41862 9.57429 5.59122 9.57429H6.23618C6.41334 9.57429 6.54049 9.46842 6.58138 9.28432L6.75398 8.54322C6.87662 8.49717 6.99922 8.45117 7.09917 8.40054L7.74869 8.801C7.88948 8.90686 8.06208 8.88843 8.18472 8.75957L8.62983 8.31306C8.75698 8.1842 8.77973 8.00466 8.67071 7.85736L8.28007 7.20837C8.33458 7.09788 8.37546 6.97821 8.41634 6.85853L9.15213 6.68824C9.33385 6.64219 9.43375 6.51789 9.43375 6.33378V5.69855C9.43375 5.51906 9.33385 5.39015 9.15213 5.34877L8.4209 5.16923C8.37546 5.04036 8.32551 4.92069 8.28463 4.8194L8.67978 4.16578C8.77973 4.01388 8.7661 3.84817 8.63889 3.71468L8.18472 3.26359C8.06208 3.14391 7.90766 3.1209 7.7532 3.21296L7.09917 3.62263C6.99922 3.57659 6.88113 3.52136 6.75398 3.47993L6.58138 2.72965C6.54049 2.54552 6.41334 2.44426 6.23618 2.44426H5.59122ZM7.11731 6.00238C7.11731 6.67443 6.57682 7.22675 5.91823 7.22675C5.25509 7.22675 4.7146 6.67443 4.7146 6.00238C4.7146 5.33953 5.25509 4.79178 5.91823 4.79178C6.57682 4.79178 7.11731 5.33953 7.11731 6.00238Z" fill="#007AFF"/>
</g>
<defs>
<clipPath id="clip0_345_478">
<rect width="12" height="12" fill="white"/>
</clipPath>
</defs>
</svg>
