<svg width="12" height="12" viewBox="0 0 12 12" fill="none" xmlns="http://www.w3.org/2000/svg">
<g clip-path="url(#clip0_345_406)">
<path d="M11.832 5.99769C11.832 9.27501 9.15213 11.9908 5.91368 11.9908C2.67979 11.9908 0 9.27501 0 5.99769C0 2.71576 2.67524 0 5.90917 0C9.14762 0 11.832 2.71576 11.832 5.99769ZM4.47842 2.55926C3.838 2.55926 3.51097 2.89528 3.51097 3.54891V8.25775C3.51097 8.9206 3.83346 9.24739 4.47842 9.24739H7.62148C8.26644 9.24739 8.58894 8.91136 8.58894 8.25775V5.57423H6.21799C5.8274 5.57423 5.64117 5.38551 5.64117 4.98505V2.55926H4.47842ZM6.09083 4.92519C6.09083 5.0541 6.15441 5.11854 6.27706 5.11854H8.54806C8.52987 4.99886 8.4436 4.87919 8.31188 4.74108L6.45873 2.84004C6.32701 2.70195 6.20437 2.6145 6.09083 2.59608V4.92519Z" fill="#5856D6"/>
</g>
<defs>
<clipPath id="clip0_345_406">
<rect width="12" height="12" fill="white"/>
</clipPath>
</defs>
</svg>
