<svg width="12" height="12" viewBox="0 0 12 12" fill="none" xmlns="http://www.w3.org/2000/svg">
<g clip-path="url(#clip0_345_562)">
<path d="M11.832 5.99769C11.832 9.27501 9.15213 11.9908 5.91368 11.9908C2.67979 11.9908 0 9.27501 0 5.99769C0 2.71576 2.67524 0 5.90917 0C9.14762 0 11.832 2.71576 11.832 5.99769ZM4.26495 2.43498C3.90159 2.43498 3.67449 2.65132 3.67449 3.03797V3.12083C3.67449 4.04143 4.66009 5.06791 5.23695 5.65248C5.45495 5.86421 5.46857 6.09898 5.23695 6.33371C4.66009 6.91828 3.67449 7.94477 3.67449 8.85617V8.95741C3.67449 9.33949 3.90159 9.55579 4.26495 9.55579H7.56246C7.9258 9.55579 8.15747 9.33949 8.15747 8.95741V8.85617C8.15747 7.94477 7.17182 6.91828 6.59045 6.33371C6.35883 6.09898 6.37696 5.86421 6.59045 5.65248C7.17182 5.06791 8.15747 4.04143 8.15747 3.12083V3.03797C8.15747 2.65132 7.9258 2.43498 7.56246 2.43498H4.26495ZM7.09006 4.53855C6.84025 4.81933 6.54505 5.11392 6.25888 5.40851C6.1499 5.51899 6.11809 5.58804 6.11809 5.73991V7.42464C6.11809 7.48446 6.13627 7.50746 6.18167 7.55351L7.36712 8.80093C7.47614 8.8976 7.43982 9.07247 7.2854 9.07247H4.54201C4.39212 9.07247 4.35579 8.8976 4.46025 8.80093L5.65024 7.55351C5.69113 7.50746 5.70931 7.48446 5.70931 7.42464V5.73991C5.70931 5.58804 5.6775 5.51899 5.57304 5.40851C5.28235 5.11392 4.98715 4.81933 4.74185 4.53855C4.64647 4.43728 4.69646 4.33141 4.80999 4.33141H7.01741C7.13094 4.33141 7.18094 4.43728 7.09006 4.53855Z" fill="#FF9500"/>
</g>
<defs>
<clipPath id="clip0_345_562">
<rect width="12" height="12" fill="white"/>
</clipPath>
</defs>
</svg>
