<svg width="89" height="89" viewBox="0 0 89 89" fill="none" xmlns="http://www.w3.org/2000/svg">
<g filter="url(#filter0_d_345_682)">
<path fill-rule="evenodd" clip-rule="evenodd" d="M25.3252 10.2H63.0752C70.3162 10.2193 76.1808 16.084 76.2002 23.3245V61.075C76.1808 68.3157 70.3162 74.1805 63.0757 74.1997L25.3252 74.2C18.0844 74.1805 12.2197 68.3157 12.2004 61.0753L12.2002 23.325C12.2197 16.084 18.0844 10.2193 25.3248 10.2H25.3252Z" fill="#5865F2"/>
<path d="M58.3119 29.3725C55.6397 28.1504 52.8192 27.2832 49.9221 26.7929C49.5273 27.5019 49.1698 28.231 48.8509 28.9772C47.3098 28.7448 45.7535 28.6278 44.195 28.6272C42.6391 28.6272 41.0756 28.7455 39.5387 28.9742C39.2249 28.2334 38.8604 27.4987 38.4647 26.7925C35.5675 27.2875 32.7467 28.1564 30.0731 29.3776C24.7632 37.2327 23.3242 44.8916 24.0437 52.4417C27.153 54.7382 30.6329 56.4849 34.3322 57.6057C35.1619 56.4859 35.905 55.2936 36.536 54.0529C35.3321 53.6044 34.1704 53.05 33.0645 52.3962C33.3555 52.1852 33.6401 51.9679 33.9151 51.7566C37.1309 53.267 40.6446 54.0547 44.1997 54.0547C47.755 54.0547 51.2686 53.267 54.4846 51.7564C54.7629 51.9835 55.0475 52.201 55.3352 52.396C54.2271 53.0509 53.0633 53.6068 51.8574 54.0571C52.4905 55.3005 53.2278 56.4881 54.0612 57.6071C57.764 56.4898 61.2466 54.7432 64.3566 52.444L64.3557 52.4449C65.2 43.6892 62.9135 36.1007 58.3119 29.3725ZM37.4459 47.7985C35.4409 47.7985 33.7844 45.9789 33.7844 43.7404C33.7844 41.5019 35.3832 39.6664 37.4395 39.6664C39.4957 39.6664 41.1394 41.5019 41.1042 43.7404C41.069 45.9789 39.4894 47.7985 37.4459 47.7985ZM50.9536 47.7985C48.9454 47.7985 47.2952 45.9789 47.2952 43.7404C47.2952 41.5019 48.8941 39.6664 50.9536 39.6664C53.013 39.6664 54.6439 41.5019 54.6087 43.7404C54.5736 45.9789 52.997 47.7985 50.9536 47.7985Z" fill="white"/>
</g>
<defs>
<filter id="filter0_d_345_682" x="0.000195503" y="-4.86374e-05" width="88.4" height="88.4" filterUnits="userSpaceOnUse" color-interpolation-filters="sRGB">
<feFlood flood-opacity="0" result="BackgroundImageFix"/>
<feColorMatrix in="SourceAlpha" type="matrix" values="0 0 0 0 0 0 0 0 0 0 0 0 0 0 0 0 0 0 127 0" result="hardAlpha"/>
<feOffset dy="2"/>
<feGaussianBlur stdDeviation="6.1"/>
<feColorMatrix type="matrix" values="0 0 0 0 0 0 0 0 0 0 0 0 0 0 0 0 0 0 0.1 0"/>
<feBlend mode="normal" in2="BackgroundImageFix" result="effect1_dropShadow_345_682"/>
<feBlend mode="normal" in="SourceGraphic" in2="effect1_dropShadow_345_682" result="shape"/>
</filter>
</defs>
</svg>
