<svg width="89" height="89" viewBox="0 0 89 89" fill="none" xmlns="http://www.w3.org/2000/svg">
<g filter="url(#filter0_d_345_450)">
<path d="M63.0752 10.2H25.3252C18.0765 10.2 12.2002 16.0762 12.2002 23.325V61.075C12.2002 68.3237 18.0765 74.2 25.3252 74.2H63.0752C70.3239 74.2 76.2002 68.3237 76.2002 61.075V23.325C76.2002 16.0762 70.3239 10.2 63.0752 10.2Z" fill="#2B2B2C"/>
<path fill-rule="evenodd" clip-rule="evenodd" d="M44.1987 16.8962C29.8426 16.8962 18.2002 28.5147 18.2002 42.8458C18.2002 54.3122 25.6489 64.0361 35.9794 67.4691C37.2798 67.7093 37.7577 66.9048 37.7577 66.219C37.7577 65.6002 37.7318 63.5562 37.7212 61.3896C30.4874 62.9594 28.9626 58.3265 28.9626 58.3265C27.7803 55.3265 26.0759 54.5286 26.0759 54.5286C23.7171 52.9165 26.2554 52.952 26.2554 52.952C28.8656 53.1339 30.2398 55.6243 30.2398 55.6243C32.5603 59.5917 36.3239 58.4433 37.8066 57.7813C38.0407 56.1042 38.7126 54.9587 39.4572 54.3102C33.6821 53.6561 27.6113 51.4301 27.6113 41.4857C27.6113 38.6533 28.6286 36.3373 30.2897 34.5212C30.0192 33.8661 29.1286 31.2282 30.5402 27.6545C30.5402 27.6545 32.7233 26.9562 37.6924 30.3145C39.7652 29.7407 41.9887 29.4515 44.1968 29.4418C46.4068 29.4515 48.6342 29.7397 50.7099 30.3145C55.6722 26.9582 57.8534 27.6545 57.8534 27.6545C59.2669 31.2292 58.3803 33.869 58.1097 34.5213C59.7766 36.3373 60.7852 38.6533 60.7852 41.4857C60.7852 51.4529 54.7011 53.6445 48.9134 54.2872C49.8462 55.0917 50.6792 56.6712 50.6792 59.0907C50.6792 62.561 50.6494 65.3578 50.6494 66.2113C50.6494 66.902 51.1178 67.7093 52.4363 67.4565C62.7609 64.0217 70.2002 54.2967 70.2002 42.8372C70.2002 28.5079 58.5598 16.8875 44.2007 16.8875L44.1988 16.8961L44.1987 16.8962Z" fill="white"/>
</g>
<defs>
<filter id="filter0_d_345_450" x="0.000195503" y="-4.86374e-05" width="88.4" height="88.4" filterUnits="userSpaceOnUse" color-interpolation-filters="sRGB">
<feFlood flood-opacity="0" result="BackgroundImageFix"/>
<feColorMatrix in="SourceAlpha" type="matrix" values="0 0 0 0 0 0 0 0 0 0 0 0 0 0 0 0 0 0 127 0" result="hardAlpha"/>
<feOffset dy="2"/>
<feGaussianBlur stdDeviation="6.1"/>
<feColorMatrix type="matrix" values="0 0 0 0 0 0 0 0 0 0 0 0 0 0 0 0 0 0 0.1 0"/>
<feBlend mode="normal" in2="BackgroundImageFix" result="effect1_dropShadow_345_450"/>
<feBlend mode="normal" in="SourceGraphic" in2="effect1_dropShadow_345_450" result="shape"/>
</filter>
</defs>
</svg>
