<svg width="85" height="85" viewBox="0 0 85 85" fill="none" xmlns="http://www.w3.org/2000/svg">
<g filter="url(#filter0_d_345_727)">
<path fill-rule="evenodd" clip-rule="evenodd" d="M72.2002 25.2002V55.2002C72.2002 63.479 65.4789 70.2002 57.2002 70.2002H27.2002C18.9214 70.2002 12.2002 63.479 12.2002 55.2002V25.2002C12.2002 16.9214 18.9214 10.2002 27.2002 10.2002H57.2002C65.4789 10.2002 72.2002 16.9214 72.2002 25.2002Z" fill="#FF4500"/>
<path d="M59.1328 46.2133C62.9842 46.2133 66.1064 43.0911 66.1064 39.2397C66.1064 35.3883 62.9842 32.2661 59.1328 32.2661C55.2814 32.2661 52.1592 35.3883 52.1592 39.2397C52.1592 43.0911 55.2814 46.2133 59.1328 46.2133Z" fill="url(#paint0_radial_345_727)"/>
<path d="M25.2676 46.2133C29.119 46.2133 32.2412 43.0911 32.2412 39.2397C32.2412 35.3883 29.119 32.2661 25.2676 32.2661C21.4161 32.2661 18.2939 35.3883 18.2939 39.2397C18.2939 43.0911 21.4161 46.2133 25.2676 46.2133Z" fill="url(#paint1_radial_345_727)"/>
<path d="M42.2232 60.1373C53.2107 60.1373 62.1179 53.4543 62.1179 45.2105C62.1179 36.9666 53.2107 30.2837 42.2232 30.2837C31.2357 30.2837 22.3286 36.9666 22.3286 45.2105C22.3286 53.4543 31.2357 60.1373 42.2232 60.1373Z" fill="url(#paint2_radial_345_727)"/>
<path d="M36.3227 43.7642C36.2061 46.2831 34.5268 47.216 32.5677 47.216C30.6085 47.216 29.1159 45.9099 29.2325 43.391C29.3491 40.8721 31.0283 39.1929 32.9875 39.1929C34.9466 39.1929 36.4393 41.2453 36.3227 43.7642ZM55.1678 43.391C55.2844 45.9099 53.7917 47.216 51.8326 47.216C49.8734 47.216 48.1942 46.3064 48.0776 43.7642C47.9609 41.2453 49.4536 39.1929 51.4128 39.1929C53.3719 39.1929 55.0512 40.8488 55.1678 43.391Z" fill="#842123"/>
<path d="M48.1009 43.9977C48.2175 46.3533 49.7802 47.2162 51.5994 47.2162C53.4186 47.2162 54.818 45.9335 54.7247 43.5545C54.6081 41.1989 53.0454 39.6362 51.2262 39.6362C49.407 39.6362 47.9843 41.6187 48.1009 43.9977Z" fill="url(#paint3_radial_345_727)"/>
<path d="M36.3226 43.9977C36.206 46.3533 34.6433 47.2162 32.8241 47.2162C31.0049 47.2162 29.6055 45.9335 29.7221 43.5545C29.8387 41.1989 31.4014 39.6362 33.2206 39.6362C35.0398 39.6362 36.4392 41.6187 36.3226 43.9977Z" fill="url(#paint4_radial_345_727)"/>
<path d="M42.2236 48.8955C39.7513 48.8955 37.3957 49.0121 35.2033 49.222C34.8301 49.2687 34.5969 49.6418 34.7368 49.9684C35.9497 52.8371 38.8417 54.8662 42.2236 54.8662C45.6054 54.8662 48.4742 52.8604 49.7103 49.9684C49.8502 49.6185 49.617 49.2454 49.2438 49.222C47.0515 49.0121 44.6958 48.8955 42.2236 48.8955Z" fill="#BBCFDA"/>
<path d="M42.2237 49.4551C39.7514 49.4551 37.3958 49.5717 35.2267 49.8049C34.8536 49.8516 34.6203 50.2247 34.7603 50.5746C35.9731 53.49 38.8652 55.5424 42.2237 55.5424C45.5822 55.5424 48.4743 53.49 49.6871 50.5746C49.827 50.2247 49.5938 49.8516 49.2206 49.8049C47.0283 49.5717 44.6726 49.4551 42.2237 49.4551Z" fill="white"/>
<path d="M42.2233 49.1519C39.7977 49.1519 37.4887 49.2685 35.343 49.4784C34.9698 49.525 34.7366 49.8982 34.8765 50.2247C36.0893 53.0935 38.9114 55.1226 42.2233 55.1226C45.5352 55.1226 48.3573 53.1168 49.5701 50.2247C49.71 49.8749 49.4768 49.5017 49.1036 49.4784C46.9579 49.2918 44.6489 49.1519 42.2233 49.1519Z" fill="url(#paint5_radial_345_727)"/>
<path d="M53.1154 28.2777C55.8462 28.2777 58.0599 26.0639 58.0599 23.3332C58.0599 20.6024 55.8462 18.3887 53.1154 18.3887C50.3846 18.3887 48.1709 20.6024 48.1709 23.3332C48.1709 26.0639 50.3846 28.2777 53.1154 28.2777Z" fill="url(#paint6_radial_345_727)"/>
<path d="M42.1534 30.9131C41.5704 30.9131 41.0806 30.6566 41.0806 30.2834C41.0806 25.852 44.6723 22.2603 49.1037 22.2603C49.6868 22.2603 50.1766 22.75 50.1766 23.3331C50.1766 23.9162 49.6868 24.406 49.1037 24.406C45.8618 24.406 43.2263 27.0415 43.2263 30.2834C43.2263 30.6799 42.7365 30.9131 42.1534 30.9131Z" fill="url(#paint7_radial_345_727)"/>
<path d="M35.0398 45.1638C35.0398 46.0734 34.0602 46.4932 32.8707 46.4932C31.6812 46.4932 30.7017 46.0734 30.7017 45.1638C30.7017 44.2542 31.6812 43.5078 32.8707 43.5078C34.0602 43.5078 35.0398 44.2308 35.0398 45.1638ZM53.7449 45.1638C53.7449 46.0734 52.7653 46.4932 51.5759 46.4932C50.3864 46.4932 49.4068 46.0734 49.4068 45.1638C49.4068 44.2542 50.3864 43.5078 51.5759 43.5078C52.7653 43.5078 53.7449 44.2308 53.7449 45.1638Z" fill="#FF6101"/>
<path d="M34.3634 42.668C34.7885 42.668 35.1331 42.2921 35.1331 41.8284C35.1331 41.3647 34.7885 40.9888 34.3634 40.9888C33.9383 40.9888 33.5938 41.3647 33.5938 41.8284C33.5938 42.2921 33.9383 42.668 34.3634 42.668Z" fill="#FFC49C"/>
<path d="M52.7658 42.668C53.1908 42.668 53.5354 42.2921 53.5354 41.8284C53.5354 41.3647 53.1908 40.9888 52.7658 40.9888C52.3407 40.9888 51.9961 41.3647 51.9961 41.8284C51.9961 42.2921 52.3407 42.668 52.7658 42.668Z" fill="#FFC49C"/>
</g>
<defs>
<filter id="filter0_d_345_727" x="0.000195503" y="0.000195503" width="84.4" height="84.4" filterUnits="userSpaceOnUse" color-interpolation-filters="sRGB">
<feFlood flood-opacity="0" result="BackgroundImageFix"/>
<feColorMatrix in="SourceAlpha" type="matrix" values="0 0 0 0 0 0 0 0 0 0 0 0 0 0 0 0 0 0 127 0" result="hardAlpha"/>
<feOffset dy="2"/>
<feGaussianBlur stdDeviation="6.1"/>
<feColorMatrix type="matrix" values="0 0 0 0 0 0 0 0 0 0 0 0 0 0 0 0 0 0 0.1 0"/>
<feBlend mode="normal" in2="BackgroundImageFix" result="effect1_dropShadow_345_727"/>
<feBlend mode="normal" in="SourceGraphic" in2="effect1_dropShadow_345_727" result="shape"/>
</filter>
<radialGradient id="paint0_radial_345_727" cx="0" cy="0" r="1" gradientUnits="userSpaceOnUse" gradientTransform="translate(59.2289 35.4747) scale(13.9709 12.1874)">
<stop stop-color="#FEFFFF"/>
<stop offset="0.4" stop-color="#FEFFFF"/>
<stop offset="0.51" stop-color="#F9FCFC"/>
<stop offset="0.62" stop-color="#EDF3F5"/>
<stop offset="0.7" stop-color="#DEE9EC"/>
<stop offset="0.72" stop-color="#D8E4E8"/>
<stop offset="0.76" stop-color="#CCD8DF"/>
<stop offset="0.8" stop-color="#C8D5DD"/>
<stop offset="0.83" stop-color="#CCD6DE"/>
<stop offset="0.85" stop-color="#D8DBE2"/>
<stop offset="0.88" stop-color="#EDE3E9"/>
<stop offset="0.9" stop-color="#FFEBEF"/>
<stop offset="1" stop-color="#FFEBEF"/>
</radialGradient>
<radialGradient id="paint1_radial_345_727" cx="0" cy="0" r="1" gradientUnits="userSpaceOnUse" gradientTransform="translate(25.3823 35.4747) scale(13.9709 12.1874)">
<stop stop-color="#FEFFFF"/>
<stop offset="0.4" stop-color="#FEFFFF"/>
<stop offset="0.51" stop-color="#F9FCFC"/>
<stop offset="0.62" stop-color="#EDF3F5"/>
<stop offset="0.7" stop-color="#DEE9EC"/>
<stop offset="0.72" stop-color="#D8E4E8"/>
<stop offset="0.76" stop-color="#CCD8DF"/>
<stop offset="0.8" stop-color="#C8D5DD"/>
<stop offset="0.83" stop-color="#CCD6DE"/>
<stop offset="0.85" stop-color="#D8DBE2"/>
<stop offset="0.88" stop-color="#EDE3E9"/>
<stop offset="0.9" stop-color="#FFEBEF"/>
<stop offset="1" stop-color="#FFEBEF"/>
</radialGradient>
<radialGradient id="paint2_radial_345_727" cx="0" cy="0" r="1" gradientUnits="userSpaceOnUse" gradientTransform="translate(42.7473 33.52) scale(42.1418 29.5889)">
<stop stop-color="#FEFFFF"/>
<stop offset="0.4" stop-color="#FEFFFF"/>
<stop offset="0.51" stop-color="#F9FCFC"/>
<stop offset="0.62" stop-color="#EDF3F5"/>
<stop offset="0.7" stop-color="#DEE9EC"/>
<stop offset="0.72" stop-color="#D8E4E8"/>
<stop offset="0.76" stop-color="#CCD8DF"/>
<stop offset="0.8" stop-color="#C8D5DD"/>
<stop offset="0.83" stop-color="#CCD6DE"/>
<stop offset="0.85" stop-color="#D8DBE2"/>
<stop offset="0.88" stop-color="#EDE3E9"/>
<stop offset="0.9" stop-color="#FFEBEF"/>
<stop offset="1" stop-color="#FFEBEF"/>
</radialGradient>
<radialGradient id="paint3_radial_345_727" cx="0" cy="0" r="1" gradientUnits="userSpaceOnUse" gradientTransform="translate(50.895 45.6002) rotate(180) scale(3.52095 5.16906)">
<stop stop-color="#FF6600"/>
<stop offset="0.5" stop-color="#FF4500"/>
<stop offset="0.7" stop-color="#FC4301"/>
<stop offset="0.82" stop-color="#F43F07"/>
<stop offset="0.92" stop-color="#E53812"/>
<stop offset="1" stop-color="#D4301F"/>
</radialGradient>
<radialGradient id="paint4_radial_345_727" cx="0" cy="0" r="1" gradientUnits="userSpaceOnUse" gradientTransform="translate(33.3815 45.6002) scale(3.52095 5.16906)">
<stop stop-color="#FF6600"/>
<stop offset="0.5" stop-color="#FF4500"/>
<stop offset="0.7" stop-color="#FC4301"/>
<stop offset="0.82" stop-color="#F43F07"/>
<stop offset="0.92" stop-color="#E53812"/>
<stop offset="1" stop-color="#D4301F"/>
</radialGradient>
<radialGradient id="paint5_radial_345_727" cx="0" cy="0" r="1" gradientUnits="userSpaceOnUse" gradientTransform="translate(42.286 55.8475) scale(12.4154 8.18889)">
<stop stop-color="#172E35"/>
<stop offset="0.29" stop-color="#0E1C21"/>
<stop offset="0.73" stop-color="#030708"/>
<stop offset="1"/>
</radialGradient>
<radialGradient id="paint6_radial_345_727" cx="0" cy="0" r="1" gradientUnits="userSpaceOnUse" gradientTransform="translate(53.2348 18.3434) scale(10.8983 10.8983)">
<stop stop-color="#FEFFFF"/>
<stop offset="0.4" stop-color="#FEFFFF"/>
<stop offset="0.51" stop-color="#F9FCFC"/>
<stop offset="0.62" stop-color="#EDF3F5"/>
<stop offset="0.7" stop-color="#DEE9EC"/>
<stop offset="0.72" stop-color="#D8E4E8"/>
<stop offset="0.76" stop-color="#CCD8DF"/>
<stop offset="0.8" stop-color="#C8D5DD"/>
<stop offset="0.83" stop-color="#CCD6DE"/>
<stop offset="0.85" stop-color="#D8DBE2"/>
<stop offset="0.88" stop-color="#EDE3E9"/>
<stop offset="0.9" stop-color="#FFEBEF"/>
<stop offset="1" stop-color="#FFEBEF"/>
</radialGradient>
<radialGradient id="paint7_radial_345_727" cx="0" cy="0" r="1" gradientUnits="userSpaceOnUse" gradientTransform="translate(48.6932 30.2242) scale(8.93283)">
<stop stop-color="#7A9299"/>
<stop offset="0.48" stop-color="#7A9299"/>
<stop offset="0.67" stop-color="#172E35"/>
<stop offset="0.75"/>
<stop offset="0.82" stop-color="#172E35"/>
<stop offset="1" stop-color="#172E35"/>
</radialGradient>
</defs>
</svg>
