<svg width="85" height="85" viewBox="0 0 85 85" fill="none" xmlns="http://www.w3.org/2000/svg">
<g filter="url(#filter0_d_345_755)">
<path fill-rule="evenodd" clip-rule="evenodd" d="M24.5049 10.2002H59.8955C63.1561 10.2092 66.2807 11.5085 68.5863 13.8141C70.8919 16.1197 72.1912 19.2443 72.2002 22.5049V57.8955C72.1912 61.1561 70.8919 64.2807 68.5863 66.5863C66.2807 68.8919 63.1561 70.1912 59.8955 70.2002H24.5049C21.2443 70.1912 18.1197 68.8919 15.8141 66.5863C13.5085 64.2807 12.2092 61.1561 12.2002 57.8955L12.2002 22.5049C12.2092 19.2443 13.5085 16.1197 15.8141 13.8141C18.1197 11.5085 21.2443 10.2092 24.5049 10.2002Z" fill="#1DA1F2"/>
<path fill-rule="evenodd" clip-rule="evenodd" d="M59.8174 29.2727C58.4962 29.8602 57.0935 30.2438 55.6572 30.4104C57.1624 29.5021 58.2906 28.0827 58.8359 26.4114C57.4168 27.2524 55.8646 27.8452 54.2461 28.1643C53.2538 27.1089 51.9674 26.3758 50.5536 26.0601C49.1398 25.7443 47.6638 25.8605 46.3168 26.3935C44.9698 26.9265 43.8139 27.8518 42.9989 29.0495C42.184 30.2471 41.7475 31.6619 41.7461 33.1106C41.7431 33.6645 41.8054 34.2168 41.9316 34.7561C39.06 34.6107 36.251 33.8631 33.687 32.5617C31.1231 31.2604 28.8614 29.4344 27.0488 27.2024C26.4096 28.3064 26.0728 29.5595 26.0723 30.8352C26.0709 32.0248 26.364 33.1963 26.9254 34.2451C27.4869 35.2939 28.2993 36.1874 29.29 36.8459C28.1422 36.8101 27.0192 36.5022 26.0137 35.9475V36.0403C26.0131 37.7081 26.5895 39.3247 27.6449 40.6161C28.7004 41.9074 30.1701 42.7939 31.8047 43.1252C31.1841 43.2946 30.5437 43.38 29.9004 43.3791C29.4418 43.3765 28.9844 43.334 28.5332 43.2522C28.9945 44.69 29.8932 45.9479 31.1038 46.8503C32.3144 47.7528 33.7765 48.2548 35.2861 48.2864C32.2501 50.6541 28.4007 51.7248 24.5781 51.2649C27.8845 53.3888 31.7324 54.516 35.6621 54.5119C48.958 54.5119 56.2334 43.4963 56.2334 33.9455C56.2334 33.6282 56.2334 33.3205 56.2334 33.0129C57.6485 31.9936 58.8691 30.7284 59.8369 29.2776L59.8174 29.2727Z" fill="white"/>
</g>
<defs>
<filter id="filter0_d_345_755" x="0.000195503" y="0.000195503" width="84.4" height="84.4" filterUnits="userSpaceOnUse" color-interpolation-filters="sRGB">
<feFlood flood-opacity="0" result="BackgroundImageFix"/>
<feColorMatrix in="SourceAlpha" type="matrix" values="0 0 0 0 0 0 0 0 0 0 0 0 0 0 0 0 0 0 127 0" result="hardAlpha"/>
<feOffset dy="2"/>
<feGaussianBlur stdDeviation="6.1"/>
<feColorMatrix type="matrix" values="0 0 0 0 0 0 0 0 0 0 0 0 0 0 0 0 0 0 0.1 0"/>
<feBlend mode="normal" in2="BackgroundImageFix" result="effect1_dropShadow_345_755"/>
<feBlend mode="normal" in="SourceGraphic" in2="effect1_dropShadow_345_755" result="shape"/>
</filter>
</defs>
</svg>
