<svg width="16" height="15" viewBox="0 0 16 15" fill="none" xmlns="http://www.w3.org/2000/svg">
<path d="M14.9885 7.49711C14.9885 11.5938 11.5938 14.9885 7.49134 14.9885C3.39471 14.9885 0 11.5938 0 7.49711C0 3.39471 3.38895 0 7.48562 0C11.588 0 14.9885 3.39471 14.9885 7.49711ZM3.52129 6.61682C3.52129 8.33717 4.93671 9.74685 6.65706 9.74685C7.28996 9.74685 7.88262 9.54547 8.37747 9.21747L10.4143 11.2543C10.5581 11.4039 10.6962 11.4672 10.8976 11.4672C11.2198 11.4672 11.4442 11.2255 11.4442 10.8918C11.4442 10.7365 11.3694 10.5926 11.2543 10.4776L9.20598 8.41771C9.56844 7.91137 9.78709 7.28996 9.78709 6.61682C9.78709 4.88492 8.38319 3.47526 6.65706 3.47526C4.93671 3.47526 3.52129 4.89068 3.52129 6.61682ZM8.88375 6.61104C8.88375 7.83083 7.88262 8.84351 6.65706 8.84351C5.43153 8.84351 4.42463 7.83083 4.42463 6.61104C4.42463 5.39125 5.43153 4.37859 6.65706 4.37859C7.88262 4.37859 8.88375 5.38549 8.88375 6.61104Z" fill="#8E8E93"/>
</svg>
