<svg width="12" height="14" viewBox="0 0 12 14" fill="none" xmlns="http://www.w3.org/2000/svg">
<path d="M11.7481 10.9103C11.5405 11.3857 11.284 11.8391 10.9827 12.2634C10.5801 12.8283 10.2495 13.2187 9.99613 13.436C9.60255 13.791 9.17973 13.9737 8.72768 13.984C8.40382 13.984 8.01249 13.8934 7.55669 13.7093C7.09939 13.5259 6.67958 13.436 6.295 13.436C5.89242 13.436 5.46061 13.5259 4.99806 13.7093C4.53627 13.8934 4.16293 13.9899 3.8773 13.9988C3.44474 14.0172 3.01218 13.8301 2.58112 13.436C2.30599 13.2003 1.96189 12.7952 1.54882 12.2221C1.10652 11.6115 0.742925 10.9007 0.45805 10.0927C0.152933 9.21834 0 8.37274 0 7.55366C0 6.61599 0.20616 5.80649 0.619229 5.12883C0.931654 4.59662 1.37831 4.15244 1.91616 3.83907C2.44653 3.52652 3.05198 3.35822 3.67039 3.35145C4.01524 3.35145 4.4673 3.45605 5.0273 3.66229C5.58731 3.86853 5.94715 3.97313 6.10383 3.97313C6.22228 3.97313 6.62035 3.85012 7.29806 3.60631C7.93753 3.38018 8.47729 3.28663 8.9196 3.32346C10.1191 3.41848 11.0194 3.88253 11.6184 4.71929C10.5464 5.35791 10.0164 6.25138 10.0269 7.39824C10.0359 8.29172 10.3665 9.03493 11.0142 9.62493C11.3005 9.89418 11.6347 10.1096 12 10.2606C11.9205 10.4867 11.8366 10.7026 11.7481 10.9103ZM8.99906 0.280638C8.99906 0.980392 8.73818 1.63448 8.22015 2.23921C7.59343 2.95812 6.83626 3.37429 6.01537 3.30873C6.00463 3.22074 5.99937 3.13218 5.99963 3.04356C5.99963 2.37106 6.2965 1.65216 6.82651 1.06363C7.0904 0.766047 7.42625 0.517818 7.83332 0.320414C8.23964 0.125956 8.62348 0.0184146 8.98482 0C8.99457 0.0942826 8.99906 0.187829 8.99906 0.280638Z" fill="#FA243C"/>
</svg>
