<svg width="10" height="14" viewBox="0 0 10 14" fill="none" xmlns="http://www.w3.org/2000/svg">
<path d="M0.37207 9.64503C0.37207 10.6586 0.764133 11.404 1.49041 11.8094C1.84391 11.9991 2.04958 12.241 2.17813 12.6791L2.3838 13.3788C2.50591 13.7973 2.79514 14 3.22576 14H6.19515C6.63864 14 6.90855 13.8038 7.0307 13.3788L7.24282 12.6791C7.37136 12.241 7.57703 11.9991 7.93052 11.8094C8.65679 11.404 9.04885 10.6586 9.04885 9.64503V4.35498C9.04885 3.34143 8.65679 2.60252 7.93052 2.19056C7.57703 2.00093 7.37136 1.75899 7.24282 1.32742L7.0307 0.621205C6.92145 0.209248 6.63219 0 6.19515 0H3.22576C2.79514 0 2.50591 0.202709 2.3838 0.621205L2.17813 1.32742C2.05601 1.75245 1.85034 2.00748 1.49041 2.19056C0.770563 2.5829 0.37207 3.32835 0.37207 4.35498V9.64503ZM1.31045 9.5077V4.49883C1.31045 3.52452 1.86962 2.93601 2.808 2.93601H6.61291C7.5513 2.93601 8.11046 3.52452 8.11046 4.49883V9.5077C8.11046 10.4755 7.5513 11.064 6.61291 11.064H2.808C1.86962 11.064 1.31045 10.4755 1.31045 9.5077ZM8.90748 6.539H9.13882C9.47303 6.539 9.6916 6.31014 9.6916 5.93742V5.05465C9.6916 4.68193 9.47303 4.45306 9.13882 4.45306H8.90748V6.539Z" fill="#FA243C"/>
</svg>
