<svg width="12" height="14" viewBox="0 0 12 14" fill="none" xmlns="http://www.w3.org/2000/svg">
<path d="M10.829 9.76638C10.9663 9.8194 11.0846 9.90973 11.1696 10.0264C11.2459 10.1358 11.2995 10.268 11.3331 10.423C11.3512 10.514 11.373 10.598 11.3966 10.6768C11.4412 10.8245 11.5082 10.9649 11.5956 11.0935C11.6382 11.1575 11.6955 11.2275 11.7663 11.3054C11.8272 11.3693 11.8816 11.4516 11.9298 11.5514C11.9742 11.6412 11.998 11.7391 11.9997 11.8385C12.0032 11.9341 11.9735 12.0281 11.9153 12.1056C11.856 12.1807 11.7838 12.2456 11.7018 12.2973C11.5928 12.3699 11.4793 12.4338 11.3612 12.489C11.2432 12.5433 11.1251 12.6002 11.007 12.6597C10.8305 12.7408 10.6618 12.8369 10.5029 12.9468C10.3613 13.0475 10.2187 13.1745 10.077 13.3303C9.9118 13.5086 9.72058 13.6629 9.50932 13.7881C9.40144 13.8541 9.28429 13.9048 9.16147 13.9387C9.0434 13.9702 8.92533 13.9912 8.80725 14C8.53297 14 8.30591 13.9545 8.12607 13.8634C7.94624 13.7724 7.79002 13.6061 7.65742 13.3644C7.61928 13.2953 7.58204 13.2524 7.54389 13.234C7.48499 13.2099 7.42296 13.1937 7.35952 13.1858L6.6411 13.1316C6.40496 13.1141 6.16427 13.1044 5.91814 13.1044C5.71372 13.1047 5.50964 13.1205 5.3078 13.1517C5.09982 13.1841 4.89365 13.2226 4.6902 13.2681C4.64842 13.2769 4.60573 13.3119 4.56305 13.3706C4.5099 13.4417 4.45033 13.5082 4.38503 13.5693C4.29655 13.6505 4.19344 13.7155 4.08077 13.761C3.92021 13.8215 3.74906 13.8515 3.5767 13.8494C3.42048 13.8494 3.25246 13.8337 3.07262 13.8022C2.90439 13.774 2.7417 13.7208 2.59035 13.6446C2.31733 13.51 2.02592 13.4133 1.72479 13.3574C1.44052 13.3075 1.1408 13.2611 0.82382 13.2209C0.71876 13.2077 0.614477 13.1893 0.511385 13.1657C0.416152 13.1449 0.32645 13.1053 0.247995 13.0493C0.176 12.9979 0.115975 12.9326 0.0717966 12.8576C0.023364 12.7619 -0.00120661 12.6567 4.55677e-05 12.5503C4.55677e-05 12.4085 0.0191186 12.2719 0.0572647 12.1397C0.0954108 12.0084 0.1163 11.8683 0.120842 11.723C0.120842 11.6223 0.113576 11.5243 0.099952 11.4288C0.0849317 11.3267 0.0752316 11.2238 0.0708883 11.1207C0.0708883 10.8887 0.128107 10.718 0.241637 10.6077C0.355168 10.4982 0.520467 10.4116 0.738445 10.3477C0.835283 10.3194 0.92648 10.2756 1.00819 10.2181C1.08315 10.1636 1.15416 10.1042 1.22072 10.0404C1.2883 9.97494 1.34998 9.90407 1.40509 9.82854C1.46231 9.75063 1.52589 9.67271 1.59673 9.59567C1.61087 9.57815 1.61854 9.55659 1.61853 9.53439C1.61853 9.47924 1.61581 9.42671 1.61126 9.37681L1.59673 9.21223C1.59673 8.90233 1.64669 8.59067 1.74568 8.27551C1.84559 7.96036 1.97547 7.65395 2.13623 7.35193C2.29674 7.05169 2.47693 6.76163 2.67572 6.48349C2.87372 6.20598 3.07081 5.94772 3.26426 5.71048C3.52703 5.39339 3.73553 5.03786 3.88187 4.65733C4.0181 4.29315 4.08985 3.8957 4.09439 3.46673C4.09439 3.28552 4.08531 3.10518 4.06624 2.92746C4.04718 2.74566 4.03779 2.56304 4.03808 2.38032C4.03808 2.01526 4.08077 1.68697 4.16524 1.39545C4.25061 1.10305 4.38321 0.852676 4.56305 0.642571C4.74288 0.432466 4.9772 0.275763 5.26512 0.17071C5.55485 0.0656578 5.89998 0.00875438 6.30142 0C6.78006 0 7.16061 0.0910455 7.44489 0.274012C7.72826 0.456103 7.94624 0.695098 8.09701 0.991871C8.24869 1.28777 8.34587 1.61868 8.38765 1.98374C8.43124 2.34792 8.45486 2.71736 8.4594 3.09117V3.2076C8.4594 3.39495 8.46122 3.56128 8.46666 3.7066C8.47512 4.00206 8.54492 4.29288 8.67193 4.56191C8.73823 4.70285 8.83723 4.85605 8.96983 5.01976C9.19689 5.30778 9.4294 5.59755 9.66554 5.88907C9.90168 6.18059 10.1169 6.48174 10.3104 6.79077C10.5048 7.10155 10.6637 7.42546 10.7863 7.76251C10.9098 8.10042 10.9734 8.46461 10.9779 8.8568C10.9792 9.16602 10.9289 9.47254 10.829 9.76638ZM4.87639 2.64032C4.94178 2.64032 4.99628 2.65608 5.03987 2.68759C5.08417 2.72196 5.11831 2.76694 5.13887 2.81803C5.16167 2.87061 5.17813 2.92554 5.18792 2.98174C5.197 3.03689 5.20245 3.0938 5.20245 3.15333C5.20393 3.19093 5.19647 3.22836 5.18065 3.26276C5.16509 3.29182 5.14344 3.31746 5.11707 3.33804L5.0317 3.40633C5.00126 3.43117 4.97301 3.45841 4.94723 3.48774C4.91317 3.53886 4.86673 3.58122 4.8119 3.61118C4.75566 3.64265 4.70109 3.67684 4.64842 3.71361C4.59811 3.74879 4.55074 3.78772 4.50674 3.83004C4.48474 3.85289 4.46777 3.8798 4.45685 3.90913C4.44592 3.93847 4.44127 3.96963 4.44316 4.00075C4.44316 4.0419 4.46405 4.07604 4.50674 4.10318C4.61264 4.16747 4.69665 4.26031 4.74833 4.37019C4.79556 4.47524 4.84823 4.57766 4.90454 4.67834C4.96086 4.77814 5.03442 4.86218 5.12434 4.93134C5.21425 4.99962 5.35412 5.03377 5.54213 5.03377H5.58573C5.77464 5.02501 5.95447 4.97686 6.12522 4.8902C6.29506 4.80353 6.46581 4.71248 6.63565 4.61618C6.66524 4.60015 6.69624 4.58667 6.72829 4.57591C6.76129 4.56457 6.79224 4.54832 6.82002 4.52776L7.33772 4.13819C7.34673 4.10885 7.35401 4.07904 7.35952 4.0489C7.36504 4.0169 7.36988 3.98479 7.37405 3.9526C7.37565 3.90908 7.36293 3.86618 7.33772 3.83004C7.3145 3.79828 7.28595 3.77047 7.25325 3.74775C7.21694 3.72388 7.17576 3.70777 7.13246 3.70048C7.08917 3.6921 7.04665 3.68039 7.00531 3.66546C6.8921 3.64303 6.78387 3.60154 6.6856 3.5429C6.58805 3.4845 6.48302 3.43859 6.37317 3.40633C6.35501 3.40108 6.34047 3.38794 6.33048 3.36518C6.31967 3.33823 6.31027 3.31076 6.30233 3.28289C6.29298 3.25403 6.2905 3.22351 6.29506 3.1936C6.30024 3.17067 6.29769 3.14675 6.2878 3.12531C6.2878 3.07104 6.29234 3.01413 6.30233 2.9546C6.31213 2.89434 6.3337 2.83641 6.3659 2.78389C6.39359 2.73525 6.43242 2.69334 6.47943 2.66133C6.53543 2.62983 6.59898 2.61294 6.66381 2.61231C6.81094 2.61231 6.91721 2.66483 6.98351 2.76989C7.04981 2.87494 7.08523 2.98874 7.08977 3.11131C7.09094 3.16578 7.07881 3.21976 7.05435 3.26888C7.03011 3.31562 7.01766 3.36721 7.01802 3.41946C7.01802 3.45623 7.03074 3.48074 7.05435 3.49475C7.08295 3.50986 7.1145 3.5191 7.14699 3.52189C7.25598 3.52189 7.32591 3.49737 7.35952 3.44747C7.39774 3.37797 7.41711 3.30027 7.41583 3.22161C7.41583 3.11656 7.40675 3.00012 7.38858 2.87231C7.37061 2.74865 7.33196 2.62862 7.27414 2.51688C7.22121 2.41195 7.14639 2.31867 7.05435 2.24287C6.9558 2.1674 6.83224 2.12884 6.70649 2.13432C6.46127 2.13432 6.28325 2.19297 6.17427 2.31203C6.06528 2.43022 6.00897 2.60793 6.00442 2.84517C6.00442 2.91346 6.00897 2.98174 6.01805 3.05002C6.02713 3.11918 6.03258 3.18747 6.03258 3.25575C6.03258 3.27851 6.02986 3.28989 6.02531 3.28989C6.01058 3.28681 5.99626 3.28211 5.98263 3.27589C5.95433 3.26483 5.92618 3.25345 5.89816 3.24175C5.86344 3.22761 5.8276 3.2162 5.79099 3.2076C5.73063 3.19347 5.66794 3.19109 5.60662 3.2006C5.56896 3.2052 5.53104 3.20754 5.49308 3.2076C5.42678 3.2076 5.39318 3.19622 5.39318 3.17346C5.39318 3.10518 5.38955 3.01851 5.37955 2.91346C5.37047 2.8084 5.34686 2.70335 5.30871 2.5983C5.277 2.50483 5.22909 2.41722 5.16703 2.33917C5.10981 2.27089 5.02534 2.23412 4.91181 2.22974C4.83555 2.22804 4.76159 2.25505 4.70564 2.30503C4.64734 2.35702 4.59717 2.41688 4.55669 2.48274C4.51317 2.55387 4.4865 2.63339 4.47858 2.71561C4.47096 2.78876 4.46157 2.86174 4.45042 2.93447C4.45407 3.05525 4.47547 3.17491 4.514 3.28989C4.53762 3.36256 4.56395 3.42646 4.59211 3.48162C4.62027 3.53589 4.65387 3.56303 4.69202 3.56303C4.71472 3.56303 4.74651 3.54727 4.78375 3.51576C4.8219 3.48337 4.84097 3.45448 4.84097 3.42646C4.84097 3.41246 4.8337 3.4037 4.81917 3.39932C4.80543 3.39477 4.79101 3.3924 4.77648 3.39232C4.74379 3.39232 4.71472 3.37656 4.69111 3.34417C4.66677 3.31061 4.64779 3.27373 4.6348 3.23474C4.61989 3.19176 4.60566 3.14857 4.59211 3.10518C4.56382 2.98706 4.5816 2.86305 4.64206 2.75675C4.68475 2.68322 4.76286 2.6447 4.87639 2.64032ZM3.32875 13.2891C3.44228 13.2891 3.55399 13.2804 3.66298 13.2611C3.77087 13.2432 3.87436 13.2061 3.96815 13.1517C4.05808 13.1015 4.13169 13.0282 4.18068 12.9398C4.23235 12.8373 4.26142 12.7255 4.26605 12.6116C4.26606 12.5301 4.25162 12.4493 4.22336 12.3726C4.19451 12.2943 4.1538 12.2205 4.10257 12.1537C4.04651 12.0681 3.98493 11.9859 3.9182 11.9077C3.85143 11.8292 3.78985 11.7468 3.73382 11.6608C3.64549 11.5357 3.55769 11.4102 3.47043 11.2844C3.38597 11.1618 3.30059 11.0323 3.21613 10.8948C3.14145 10.7784 3.07027 10.6598 3.00269 10.5394C2.93325 10.4165 2.85238 10.2998 2.7611 10.191C2.70345 10.1216 2.63692 10.0595 2.5631 10.0063C2.48726 9.95132 2.39456 9.92236 2.29971 9.92396C2.20076 9.92256 2.10485 9.95691 2.03087 10.0203C1.94632 10.0913 1.86795 10.1689 1.79655 10.2523C1.7128 10.3469 1.62269 10.4361 1.5268 10.5193C1.42689 10.6059 1.29974 10.6742 1.14352 10.7241C1.03781 10.7514 0.940561 10.8031 0.860149 10.8747C0.793848 10.9386 0.760243 11.0366 0.760243 11.1688C0.760243 11.2599 0.767509 11.3509 0.782041 11.442C0.795664 11.533 0.805655 11.6249 0.810196 11.716C0.810196 11.8385 0.792031 11.955 0.752977 12.0644C0.716341 12.1679 0.697325 12.2764 0.696666 12.3857C0.696666 12.5091 0.742078 12.5958 0.831086 12.6457C0.92191 12.6965 1.02272 12.7306 1.13625 12.7481C1.27885 12.7718 1.41327 12.7893 1.54133 12.8033C1.66848 12.8173 1.79382 12.8383 1.91734 12.8646C2.03995 12.8926 2.16257 12.9215 2.28609 12.9539C2.4087 12.9854 2.53949 13.0361 2.67663 13.1044C2.70388 13.1176 2.74747 13.1342 2.80378 13.1517L2.99542 13.213C3.06627 13.2366 3.13257 13.255 3.19433 13.2681C3.23828 13.2795 3.28332 13.2865 3.32875 13.2891ZM5.92632 12.468C6.05892 12.468 6.2006 12.4549 6.35228 12.4268C6.66108 12.3711 6.95974 12.272 7.23872 12.1327C7.36861 12.0689 7.49205 11.9936 7.60747 11.9077C7.61895 11.8952 7.62871 11.8814 7.63653 11.8666C7.64558 11.849 7.65258 11.8305 7.65742 11.8114V11.8044C7.68558 11.7046 7.70919 11.5943 7.72826 11.4761C7.74795 11.3557 7.7646 11.2349 7.77822 11.1137C7.79195 10.9925 7.80861 10.8717 7.82817 10.7513C7.84634 10.6331 7.86359 10.5166 7.87722 10.4028C7.89629 10.2803 7.9199 10.1612 7.94806 10.0474C7.97712 9.93359 8.01436 9.82591 8.06159 9.72524C8.10828 9.6261 8.1732 9.53594 8.25323 9.4591C8.34637 9.37258 8.45152 9.29892 8.56566 9.24025V9.22624L8.5584 9.2061C8.55998 9.15968 8.57474 9.11456 8.60108 9.07566C8.63288 9.02541 8.6684 8.97743 8.70735 8.93209C8.74516 8.88605 8.79094 8.84666 8.84268 8.81566C8.88994 8.78834 8.93982 8.76548 8.99163 8.74737C8.96299 8.63737 8.93211 8.52792 8.89899 8.41908C8.86609 8.31077 8.83761 8.20126 8.81361 8.0908C8.79037 7.95101 8.7622 7.81203 8.72915 7.67409C8.70283 7.56709 8.66946 7.46183 8.62924 7.35893C8.58858 7.25865 8.53355 7.16435 8.46576 7.07879C8.39582 6.98774 8.30772 6.87744 8.20418 6.7505C8.16463 6.70789 8.12878 6.66221 8.09701 6.61393C8.07235 6.55967 8.05819 6.50152 8.05523 6.44235C8.04391 6.38249 8.02967 6.32319 8.01254 6.26463C7.94875 6.04293 7.87542 5.82388 7.79275 5.60805C7.74912 5.49281 7.69691 5.38075 7.63653 5.27276C7.58829 5.18629 7.53617 5.10187 7.48031 5.01976C7.43309 4.95148 7.38313 4.91733 7.33136 4.91733C7.21783 4.91733 7.08251 4.96111 6.92629 5.04777C6.77098 5.13444 6.60477 5.22987 6.43039 5.33492C6.2551 5.43997 6.08526 5.53802 5.91905 5.62906C5.75375 5.72011 5.6048 5.76301 5.4722 5.75863C5.33068 5.75854 5.19324 5.71294 5.08165 5.62906C4.96137 5.54073 4.8517 5.43972 4.75469 5.32791C4.65569 5.21411 4.57304 5.11606 4.50674 5.03377C4.44043 4.95148 4.39139 4.90595 4.35778 4.8972C4.32055 4.8972 4.29875 4.92434 4.29421 4.97861C4.28915 5.04006 4.28673 5.10169 4.28694 5.16333V5.27977C4.28694 5.30778 4.2824 5.32529 4.27241 5.33492C4.22064 5.43997 4.16342 5.5424 4.10257 5.6422C4.04081 5.74287 3.97996 5.8453 3.9182 5.95035C3.79585 6.15223 3.7275 6.38027 3.71929 6.61393C3.71929 6.68222 3.72383 6.7505 3.73382 6.81878C3.74291 6.88707 3.76652 6.9536 3.80467 7.01751L3.79013 7.04377C3.75367 7.09257 3.71328 7.13853 3.66934 7.18122C3.62458 7.22517 3.58443 7.27325 3.54945 7.32479C3.37572 7.57216 3.25044 7.84809 3.1798 8.13894C3.10895 8.43047 3.07081 8.72724 3.06627 9.02751C3.06627 9.10543 3.07172 9.18334 3.0808 9.26038C3.08988 9.33829 3.09533 9.41533 3.09533 9.49325C3.09505 9.51849 3.09262 9.54367 3.08806 9.56853C3.0835 9.5934 3.08107 9.61858 3.0808 9.64382C3.18175 9.6548 3.27889 9.6874 3.36508 9.73924C3.47407 9.79877 3.59214 9.87406 3.71929 9.96511C3.84644 10.0562 3.96815 10.1612 4.08168 10.2803C4.19521 10.3984 4.30329 10.514 4.40774 10.6287C4.51219 10.7425 4.58757 10.8563 4.6348 10.9701C4.68203 11.0839 4.71291 11.1776 4.72653 11.2502C4.72897 11.3032 4.72016 11.356 4.70064 11.4056C4.68111 11.4551 4.65129 11.5003 4.613 11.5383C4.53155 11.6148 4.43526 11.6752 4.32963 11.716C4.41046 11.8526 4.50946 11.969 4.62753 12.0644C4.7456 12.1607 4.87366 12.2377 5.01081 12.2973C5.14795 12.3568 5.29691 12.3997 5.45766 12.4268C5.61842 12.4549 5.77555 12.468 5.92632 12.468ZM8.77183 13.4397C8.87083 13.4397 8.96801 13.4257 9.06247 13.3986C9.2056 13.359 9.34182 13.2991 9.46664 13.2209C9.59016 13.1429 9.70278 13.0475 9.80723 12.9328C10.054 12.6585 10.3558 12.4351 10.6946 12.2763L10.9289 12.1738C11.0093 12.1401 11.0873 12.1012 11.1623 12.0574C11.2165 12.0243 11.2668 11.9856 11.3122 11.9418C11.335 11.9205 11.3531 11.8949 11.3653 11.8666C11.3775 11.8383 11.3835 11.8079 11.383 11.7773C11.3831 11.742 11.3757 11.7072 11.3612 11.6748C11.3443 11.6384 11.3229 11.604 11.2977 11.5724C11.2329 11.4855 11.1714 11.3965 11.1133 11.3054C11.0607 11.2225 11.0154 11.1356 10.9779 11.0454L10.8644 10.7723C10.8235 10.672 10.7901 10.569 10.7645 10.4641C10.7547 10.4317 10.738 10.4016 10.7155 10.3757C10.6698 10.3099 10.6075 10.2565 10.5343 10.2204C10.4612 10.1844 10.3797 10.1671 10.2977 10.17C10.213 10.1697 10.1297 10.1908 10.0561 10.2312L9.81449 10.3617C9.7304 10.4066 9.64531 10.4498 9.55928 10.4912C9.47561 10.5318 9.38319 10.5528 9.28953 10.5525C9.20579 10.5561 9.12325 10.5323 9.0552 10.4851C8.98991 10.4351 8.93662 10.3721 8.89899 10.3004C8.85861 10.2274 8.82311 10.1519 8.79272 10.0745L8.70735 9.84867C8.67036 9.90722 8.62779 9.96232 8.58019 10.0133C8.53157 10.0654 8.49311 10.1256 8.46666 10.191C8.4049 10.3275 8.36676 10.4799 8.35313 10.6488C8.32952 10.9132 8.29864 11.1706 8.26049 11.4218C8.22163 11.678 8.15777 11.9301 8.06976 12.1747C8.04466 12.2529 8.02553 12.3328 8.01254 12.4137C7.99844 12.4975 7.98874 12.582 7.98348 12.6667C7.98348 12.8899 8.05523 13.0747 8.19692 13.2209C8.3386 13.3662 8.53024 13.4397 8.77183 13.4397Z" fill="#FA243C"/>
</svg>
