<svg width="18" height="14" viewBox="0 0 18 14" fill="none" xmlns="http://www.w3.org/2000/svg">
<path d="M1.805 11.6142H15.7533C16.9543 11.6142 17.5583 11.0335 17.5583 9.81612V1.79811C17.5583 0.58071 16.9543 0 15.7533 0H1.805C0.611029 0 0 0.58071 0 1.79811V9.81612C0 11.0335 0.611029 11.6142 1.805 11.6142ZM5.24642 13.986H12.3119C12.6209 13.986 12.8808 13.7341 12.8808 13.4193C12.8808 13.1044 12.6209 12.8526 12.3119 12.8526H5.24642C4.93739 12.8526 4.67754 13.1044 4.67754 13.4193C4.67754 13.7341 4.93739 13.986 5.24642 13.986Z" fill="#FA243C"/>
</svg>
