<svg width="14" height="14" viewBox="0 0 14 14" fill="none" xmlns="http://www.w3.org/2000/svg">
<path d="M6.87865 14C10.6754 14 13.7573 10.8637 13.7573 6.99999C13.7573 3.13627 10.6754 0 6.87865 0C3.0819 0 0 3.13627 0 6.99999C0 10.8637 3.0819 14 6.87865 14ZM6.87865 12.8333C3.70907 12.8333 1.14644 10.2255 1.14644 6.99999C1.14644 3.7745 3.70907 1.16667 6.87865 1.16667C10.0482 1.16667 12.6108 3.7745 12.6108 6.99999C12.6108 10.2255 10.0482 12.8333 6.87865 12.8333Z" fill="#FA243C"/>
<path d="M4.05355 10.4589L7.92447 8.53731C8.14027 8.42754 8.28867 8.27652 8.39654 8.0638L10.278 4.13146C10.4938 3.66479 10.1634 3.30107 9.69134 3.54126L5.83391 5.45597C5.62485 5.55205 5.48323 5.69616 5.36859 5.9295L3.47359 9.86873C3.25779 10.3216 3.60846 10.6785 4.05355 10.4589ZM6.87919 7.84419C6.42062 7.84419 6.05645 7.46675 6.05645 7.00694C6.05645 6.54028 6.42062 6.16283 6.87919 6.16283C7.33777 6.16283 7.70867 6.54028 7.70867 7.00694C7.70867 7.46675 7.33777 7.84419 6.87919 7.84419Z" fill="#FA243C"/>
</svg>
