<svg width="9" height="14" viewBox="0 0 9 14" fill="none" xmlns="http://www.w3.org/2000/svg">
<path d="M1.7726 13.9867H6.60163C7.6639 13.9867 8.37421 13.2996 8.37421 12.269V1.71779C8.37421 0.687112 7.6639 0 6.60163 0H1.7726C0.710341 0 0 0.687112 0 1.71779V12.269C0 13.2996 0.710341 13.9867 1.7726 13.9867ZM1.90946 12.9231C1.35552 12.9231 1.04923 12.6257 1.04923 12.0972V1.88957C1.04923 1.36102 1.35552 1.06371 1.90946 1.06371H6.4713C7.01873 1.06371 7.32503 1.36102 7.32503 1.88957V12.0972C7.32503 12.6257 7.01873 12.9231 6.4713 12.9231H1.90946ZM2.80879 12.4408H5.57848C5.75443 12.4408 5.87825 12.3152 5.87825 12.1302C5.87825 11.9452 5.75443 11.8263 5.57848 11.8263H2.80879C2.63283 11.8263 2.50249 11.9452 2.50249 12.1302C2.50249 12.3152 2.63283 12.4408 2.80879 12.4408ZM3.40183 2.46437H4.97892C5.23308 2.46437 5.4351 2.25955 5.4351 1.99528C5.4351 1.73761 5.23308 1.53279 4.97892 1.53279H3.40183C3.14115 1.53279 2.93913 1.73761 2.93913 1.99528C2.93913 2.25955 3.14115 2.46437 3.40183 2.46437Z" fill="#FA243C"/>
</svg>
